<?xml version="1.0" encoding="UTF-8" standalone="no"?>
<!-- Created with Inkscape (http://www.inkscape.org/) -->

<svg
   xmlns:dc="http://purl.org/dc/elements/1.1/"
   xmlns:cc="http://creativecommons.org/ns#"
   xmlns:rdf="http://www.w3.org/1999/02/22-rdf-syntax-ns#"
   xmlns:svg="http://www.w3.org/2000/svg"
   xmlns="http://www.w3.org/2000/svg"
   xmlns:sodipodi="http://sodipodi.sourceforge.net/DTD/sodipodi-0.dtd"
   xmlns:inkscape="http://www.inkscape.org/namespaces/inkscape"
   id="svg2"
   version="1.1"
   inkscape:version="0.91 r13725"
   xml:space="preserve"
   width="175"
   height="175"
   viewBox="0 0 175 175"
   sodipodi:docname="bladder.svg"><metadata
     id="metadata8"><rdf:RDF><cc:Work
         rdf:about=""><dc:format>image/svg+xml</dc:format><dc:type
           rdf:resource="http://purl.org/dc/dcmitype/StillImage" /><dc:title></dc:title></cc:Work></rdf:RDF></metadata><defs
     id="defs6"><clipPath
       clipPathUnits="userSpaceOnUse"
       id="clipPath18"><path
         d="m 0,1092 1038,0 L 1038,0 0,0 0,1092 Z"
         id="path20"
         inkscape:connector-curvature="0" /></clipPath><clipPath
       clipPathUnits="userSpaceOnUse"
       id="clipPath30"><path
         d="m 781.451,266.386 173.912,0 0,-146.237 -173.912,0 0,146.237 z"
         id="path32"
         inkscape:connector-curvature="0" /></clipPath><clipPath
       clipPathUnits="userSpaceOnUse"
       id="clipPath66"><path
         d="m 0,1092 1038,0 L 1038,0 0,0 0,1092 Z"
         id="path68"
         inkscape:connector-curvature="0" /></clipPath><clipPath
       clipPathUnits="userSpaceOnUse"
       id="clipPath78"><path
         d="m 561.664,262.27 166.433,0 0,-143.96 -166.433,0 0,143.96 z"
         id="path80"
         inkscape:connector-curvature="0" /></clipPath><clipPath
       clipPathUnits="userSpaceOnUse"
       id="clipPath126"><path
         d="m 0,1092 1038,0 L 1038,0 0,0 0,1092 Z"
         id="path128"
         inkscape:connector-curvature="0" /></clipPath><clipPath
       clipPathUnits="userSpaceOnUse"
       id="clipPath138"><path
         d="m 341.673,282.12 154.189,0 0,-164.2 -154.189,0 0,164.2 z"
         id="path140"
         inkscape:connector-curvature="0" /></clipPath><clipPath
       clipPathUnits="userSpaceOnUse"
       id="clipPath158"><path
         d="m 0,1092 1038,0 L 1038,0 0,0 0,1092 Z"
         id="path160"
         inkscape:connector-curvature="0" /></clipPath><clipPath
       clipPathUnits="userSpaceOnUse"
       id="clipPath170"><path
         d="m 107.093,258.201 161.075,0 0,-139.921 -161.075,0 0,139.921 z"
         id="path172"
         inkscape:connector-curvature="0" /></clipPath><clipPath
       clipPathUnits="userSpaceOnUse"
       id="clipPath222"><path
         d="m 0,1092 1038,0 L 1038,0 0,0 0,1092 Z"
         id="path224"
         inkscape:connector-curvature="0" /></clipPath><clipPath
       clipPathUnits="userSpaceOnUse"
       id="clipPath234"><path
         d="m 799.847,599.163 155.52,0 0,-166.953 -155.52,0 0,166.953 z"
         id="path236"
         inkscape:connector-curvature="0" /></clipPath><clipPath
       clipPathUnits="userSpaceOnUse"
       id="clipPath262"><path
         d="m 0,1092 1038,0 L 1038,0 0,0 0,1092 Z"
         id="path264"
         inkscape:connector-curvature="0" /></clipPath><clipPath
       clipPathUnits="userSpaceOnUse"
       id="clipPath274"><path
         d="m 570.114,604.951 158.627,0 0,-172.541 -158.627,0 0,172.541 z"
         id="path276"
         inkscape:connector-curvature="0" /></clipPath><clipPath
       clipPathUnits="userSpaceOnUse"
       id="clipPath342"><path
         d="m 0,1092 1038,0 L 1038,0 0,0 0,1092 Z"
         id="path344"
         inkscape:connector-curvature="0" /></clipPath><clipPath
       clipPathUnits="userSpaceOnUse"
       id="clipPath354"><path
         d="m 341.581,589.833 155.211,0 0,-155.893 -155.211,0 0,155.893 z"
         id="path356"
         inkscape:connector-curvature="0" /></clipPath><clipPath
       clipPathUnits="userSpaceOnUse"
       id="clipPath390"><path
         d="m 0,1092 1038,0 L 1038,0 0,0 0,1092 Z"
         id="path392"
         inkscape:connector-curvature="0" /></clipPath><clipPath
       clipPathUnits="userSpaceOnUse"
       id="clipPath402"><path
         d="m 121.544,579.465 144.885,0 0,-146.375 -144.885,0 0,146.375 z"
         id="path404"
         inkscape:connector-curvature="0" /></clipPath><clipPath
       clipPathUnits="userSpaceOnUse"
       id="clipPath442"><path
         d="m 0,1092 1038,0 L 1038,0 0,0 0,1092 Z"
         id="path444"
         inkscape:connector-curvature="0" /></clipPath><clipPath
       clipPathUnits="userSpaceOnUse"
       id="clipPath454"><path
         d="m 804.489,883.706 150.878,0 0,-144.676 -150.878,0 0,144.676 z"
         id="path456"
         inkscape:connector-curvature="0" /></clipPath><clipPath
       clipPathUnits="userSpaceOnUse"
       id="clipPath482"><path
         d="m 0,1092 1038,0 L 1038,0 0,0 0,1092 Z"
         id="path484"
         inkscape:connector-curvature="0" /></clipPath><clipPath
       clipPathUnits="userSpaceOnUse"
       id="clipPath494"><path
         d="m 554.567,872.827 174.169,0 0,-138.287 -174.169,0 0,138.287 z"
         id="path496"
         inkscape:connector-curvature="0" /></clipPath><clipPath
       clipPathUnits="userSpaceOnUse"
       id="clipPath530"><path
         d="m 0,1092 1038,0 L 1038,0 0,0 0,1092 Z"
         id="path532"
         inkscape:connector-curvature="0" /></clipPath><clipPath
       clipPathUnits="userSpaceOnUse"
       id="clipPath542"><path
         d="m 336.156,902.815 159.371,0 0,-168.275 -159.371,0 0,168.275 z"
         id="path544"
         inkscape:connector-curvature="0" /></clipPath><clipPath
       clipPathUnits="userSpaceOnUse"
       id="clipPath606"><path
         d="m 0,1092 1038,0 L 1038,0 0,0 0,1092 Z"
         id="path608"
         inkscape:connector-curvature="0" /></clipPath><clipPath
       clipPathUnits="userSpaceOnUse"
       id="clipPath618"><path
         d="m 127.32,898.003 138.328,0 0,-161.613 -138.328,0 0,161.613 z"
         id="path620"
         inkscape:connector-curvature="0" /></clipPath><clipPath
       clipPathUnits="userSpaceOnUse"
       id="clipPath650"><path
         d="m 0,1092 1038,0 L 1038,0 0,0 0,1092 Z"
         id="path652"
         inkscape:connector-curvature="0" /></clipPath></defs><sodipodi:namedview
     pagecolor="#ffffff"
     bordercolor="#666666"
     borderopacity="1"
     objecttolerance="10"
     gridtolerance="10"
     guidetolerance="10"
     inkscape:pageopacity="0"
     inkscape:pageshadow="2"
     inkscape:window-width="1440"
     inkscape:window-height="851"
     id="namedview4"
     showgrid="false"
     inkscape:zoom="3.245"
     inkscape:cx="87.5"
     inkscape:cy="97.535047"
     inkscape:window-x="0"
     inkscape:window-y="23"
     inkscape:window-maximized="1"
     inkscape:current-layer="g10" /><g
     id="g10"
     inkscape:groupmode="layer"
     inkscape:label="various_internal_organs_icons_design_vector"
     transform="matrix(1.25,0,0,-1.25,0,175)"><g
       id="g4355"
       transform="matrix(1.1666667,0,0,1.1666667,0.00107182,0.03246469)"><g
         style="fill:#40b4ba;fill-opacity:0.90588235"
         transform="matrix(0.61393636,0,0,0.61396777,119.99357,59.808282)"
         id="g446"><path
           inkscape:connector-curvature="0"
           id="path448"
           style="fill:#40b4ba;fill-opacity:0.90588235;fill-rule:nonzero;stroke:none"
           d="m 0,0 c 0,-26.54 -10.578,-50.62 -27.76,-68.22 -10.09,-10.35 -22.449,-18.46 -36.28,-23.54 -1.43,-0.53 -2.88,-1.02 -4.34,-1.48 -9.26,-2.92 -19.12,-4.49 -29.349,-4.49 -53.97,0 -97.731,43.75 -97.731,97.73 0,10.23 1.57,20.09 4.49,29.35 0.46,1.46 0.95,2.91 1.481,4.34 5.08,13.83 13.199,26.19 23.54,36.28 17.609,17.17 41.679,27.75 68.22,27.75 2.419,0 4.82,-0.09 7.2,-0.26 C -42.299,93.95 -3.779,55.44 -0.27,7.21 -0.09,4.83 0,2.43 0,0" /></g><g
         transform="matrix(0.61393636,0,0,0.61396777,67.389906,35.84979)"
         id="g466"><path
           inkscape:connector-curvature="0"
           id="path468"
           style="fill:#ffffff;fill-opacity:1;fill-rule:nonzero;stroke:none"
           d="m 0,0 c 15.897,7.313 32.032,22.393 32.032,37.841 0,17.213 -21.099,31.146 -44.227,31.176 -23.127,-0.03 -44.228,-13.963 -44.228,-31.176 0,-15.448 16.136,-30.528 32.032,-37.841 9.07,-4.171 8.775,-14.24 8.938,-19.85 0.031,-1.062 1.608,-1.565 3.205,-1.565 1.658,0 3.336,0.543 3.311,1.565 C -9.073,-14.111 -9.069,-4.171 0,0" /></g><g
         transform="matrix(0.61393636,0,0,0.61396777,34.045494,67.062006)"
         id="g470"><path
           inkscape:connector-curvature="0"
           id="path472"
           style="fill:#ffffff;fill-opacity:1;fill-rule:nonzero;stroke:none"
           d="m 0,0 c 1.801,2.89 4.202,5.613 7.174,8.09 -11.177,3.97 -14.155,18.464 -14.489,27.17 -0.048,1.236 -0.125,2.099 -0.08,3.084 0.054,1.171 -4.787,1.463 -5.088,-0.588 -0.215,-1.464 0,-2.973 0,-5.544 C -12.483,15.818 -5.969,5.288 0,0" /></g><g
         transform="matrix(0.61393636,0,0,0.61396777,93.605118,90.24285)"
         id="g474"><path
           inkscape:connector-curvature="0"
           id="path476"
           style="fill:#ffffff;fill-opacity:1;fill-rule:nonzero;stroke:none"
           d="m 0,0 c -0.301,2.051 -5.143,1.759 -5.088,0.588 0.045,-0.984 -0.031,-1.848 -0.08,-3.084 -0.336,-8.759 -3.348,-23.377 -14.694,-27.241 2.987,-2.505 5.395,-5.259 7.19,-8.18 C -6.652,-32.687 0,-22.112 0,-5.543 0,-2.973 0.217,-1.464 0,0" /></g></g></g></svg>