<?xml version="1.0" encoding="UTF-8" standalone="no"?>
<!-- Created with Inkscape (http://www.inkscape.org/) -->

<svg
   xmlns:dc="http://purl.org/dc/elements/1.1/"
   xmlns:cc="http://creativecommons.org/ns#"
   xmlns:rdf="http://www.w3.org/1999/02/22-rdf-syntax-ns#"
   xmlns:svg="http://www.w3.org/2000/svg"
   xmlns="http://www.w3.org/2000/svg"
   xmlns:sodipodi="http://sodipodi.sourceforge.net/DTD/sodipodi-0.dtd"
   xmlns:inkscape="http://www.inkscape.org/namespaces/inkscape"
   id="svg4472"
   version="1.1"
   inkscape:version="0.91 r13725"
   xml:space="preserve"
   width="175"
   height="175"
   viewBox="0 0 175 175"
   sodipodi:docname="gallbladder.svg"><metadata
     id="metadata4478"><rdf:RDF><cc:Work
         rdf:about=""><dc:format>image/svg+xml</dc:format><dc:type
           rdf:resource="http://purl.org/dc/dcmitype/StillImage" /><dc:title></dc:title></cc:Work></rdf:RDF></metadata><defs
     id="defs4476"><clipPath
       clipPathUnits="userSpaceOnUse"
       id="clipPath4488"><path
         d="m 0,1092 1038,0 L 1038,0 0,0 0,1092 Z"
         id="path4490"
         inkscape:connector-curvature="0" /></clipPath><clipPath
       clipPathUnits="userSpaceOnUse"
       id="clipPath4500"><path
         d="m 781.451,266.386 173.912,0 0,-146.237 -173.912,0 0,146.237 z"
         id="path4502"
         inkscape:connector-curvature="0" /></clipPath><clipPath
       clipPathUnits="userSpaceOnUse"
       id="clipPath4536"><path
         d="m 0,1092 1038,0 L 1038,0 0,0 0,1092 Z"
         id="path4538"
         inkscape:connector-curvature="0" /></clipPath><clipPath
       clipPathUnits="userSpaceOnUse"
       id="clipPath4548"><path
         d="m 561.664,262.27 166.433,0 0,-143.96 -166.433,0 0,143.96 z"
         id="path4550"
         inkscape:connector-curvature="0" /></clipPath><clipPath
       clipPathUnits="userSpaceOnUse"
       id="clipPath4596"><path
         d="m 0,1092 1038,0 L 1038,0 0,0 0,1092 Z"
         id="path4598"
         inkscape:connector-curvature="0" /></clipPath><clipPath
       clipPathUnits="userSpaceOnUse"
       id="clipPath4608"><path
         d="m 341.673,282.12 154.189,0 0,-164.2 -154.189,0 0,164.2 z"
         id="path4610"
         inkscape:connector-curvature="0" /></clipPath><clipPath
       clipPathUnits="userSpaceOnUse"
       id="clipPath4628"><path
         d="m 0,1092 1038,0 L 1038,0 0,0 0,1092 Z"
         id="path4630"
         inkscape:connector-curvature="0" /></clipPath><clipPath
       clipPathUnits="userSpaceOnUse"
       id="clipPath4640"><path
         d="m 107.093,258.201 161.075,0 0,-139.921 -161.075,0 0,139.921 z"
         id="path4642"
         inkscape:connector-curvature="0" /></clipPath><clipPath
       clipPathUnits="userSpaceOnUse"
       id="clipPath4692"><path
         d="m 0,1092 1038,0 L 1038,0 0,0 0,1092 Z"
         id="path4694"
         inkscape:connector-curvature="0" /></clipPath><clipPath
       clipPathUnits="userSpaceOnUse"
       id="clipPath4704"><path
         d="m 799.847,599.163 155.52,0 0,-166.953 -155.52,0 0,166.953 z"
         id="path4706"
         inkscape:connector-curvature="0" /></clipPath><clipPath
       clipPathUnits="userSpaceOnUse"
       id="clipPath4732"><path
         d="m 0,1092 1038,0 L 1038,0 0,0 0,1092 Z"
         id="path4734"
         inkscape:connector-curvature="0" /></clipPath><clipPath
       clipPathUnits="userSpaceOnUse"
       id="clipPath4744"><path
         d="m 570.114,604.951 158.627,0 0,-172.541 -158.627,0 0,172.541 z"
         id="path4746"
         inkscape:connector-curvature="0" /></clipPath><clipPath
       clipPathUnits="userSpaceOnUse"
       id="clipPath4812"><path
         d="m 0,1092 1038,0 L 1038,0 0,0 0,1092 Z"
         id="path4814"
         inkscape:connector-curvature="0" /></clipPath><clipPath
       clipPathUnits="userSpaceOnUse"
       id="clipPath4824"><path
         d="m 341.581,589.833 155.211,0 0,-155.893 -155.211,0 0,155.893 z"
         id="path4826"
         inkscape:connector-curvature="0" /></clipPath><clipPath
       clipPathUnits="userSpaceOnUse"
       id="clipPath4860"><path
         d="m 0,1092 1038,0 L 1038,0 0,0 0,1092 Z"
         id="path4862"
         inkscape:connector-curvature="0" /></clipPath><clipPath
       clipPathUnits="userSpaceOnUse"
       id="clipPath4872"><path
         d="m 121.544,579.465 144.885,0 0,-146.375 -144.885,0 0,146.375 z"
         id="path4874"
         inkscape:connector-curvature="0" /></clipPath><clipPath
       clipPathUnits="userSpaceOnUse"
       id="clipPath4912"><path
         d="m 0,1092 1038,0 L 1038,0 0,0 0,1092 Z"
         id="path4914"
         inkscape:connector-curvature="0" /></clipPath><clipPath
       clipPathUnits="userSpaceOnUse"
       id="clipPath4924"><path
         d="m 804.489,883.706 150.878,0 0,-144.676 -150.878,0 0,144.676 z"
         id="path4926"
         inkscape:connector-curvature="0" /></clipPath><clipPath
       clipPathUnits="userSpaceOnUse"
       id="clipPath4952"><path
         d="m 0,1092 1038,0 L 1038,0 0,0 0,1092 Z"
         id="path4954"
         inkscape:connector-curvature="0" /></clipPath><clipPath
       clipPathUnits="userSpaceOnUse"
       id="clipPath4964"><path
         d="m 554.567,872.827 174.169,0 0,-138.287 -174.169,0 0,138.287 z"
         id="path4966"
         inkscape:connector-curvature="0" /></clipPath><clipPath
       clipPathUnits="userSpaceOnUse"
       id="clipPath5000"><path
         d="m 0,1092 1038,0 L 1038,0 0,0 0,1092 Z"
         id="path5002"
         inkscape:connector-curvature="0" /></clipPath><clipPath
       clipPathUnits="userSpaceOnUse"
       id="clipPath5012"><path
         d="m 336.156,902.815 159.371,0 0,-168.275 -159.371,0 0,168.275 z"
         id="path5014"
         inkscape:connector-curvature="0" /></clipPath><clipPath
       clipPathUnits="userSpaceOnUse"
       id="clipPath5076"><path
         d="m 0,1092 1038,0 L 1038,0 0,0 0,1092 Z"
         id="path5078"
         inkscape:connector-curvature="0" /></clipPath><clipPath
       clipPathUnits="userSpaceOnUse"
       id="clipPath5088"><path
         d="m 127.32,898.003 138.328,0 0,-161.613 -138.328,0 0,161.613 z"
         id="path5090"
         inkscape:connector-curvature="0" /></clipPath><clipPath
       clipPathUnits="userSpaceOnUse"
       id="clipPath5120"><path
         d="m 0,1092 1038,0 L 1038,0 0,0 0,1092 Z"
         id="path5122"
         inkscape:connector-curvature="0" /></clipPath></defs><sodipodi:namedview
     pagecolor="#ffffff"
     bordercolor="#666666"
     borderopacity="1"
     objecttolerance="10"
     gridtolerance="10"
     guidetolerance="10"
     inkscape:pageopacity="0"
     inkscape:pageshadow="2"
     inkscape:window-width="1440"
     inkscape:window-height="851"
     id="namedview4474"
     showgrid="false"
     inkscape:zoom="3.7085714"
     inkscape:cx="87.5"
     inkscape:cy="87.5"
     inkscape:window-x="0"
     inkscape:window-y="23"
     inkscape:window-maximized="1"
     inkscape:current-layer="g4690" /><g
     id="g4480"
     inkscape:groupmode="layer"
     inkscape:label="various_internal_organs_icons_design_vector"
     transform="matrix(1.25,0,0,-1.25,0,175)"><g
       id="g4688"
       transform="matrix(0.71625908,0,0,0.71629573,-543.48323,-309.88026)"><g
         id="g4690"
         clip-path="url(#clipPath4692)"><path
           inkscape:connector-curvature="0"
           id="path4698"
           style="fill:#40b4ba;fill-opacity:0.90588235;fill-rule:nonzero;stroke:none"
           d="m 954.46369,529.62854 c 0,-53.97 -43.76,-97.72 -97.73,-97.72 -1.34,0 -2.67,0.031 -3.99,0.09 -50.801,2.03 -91.631,42.851 -93.65,93.66 -0.06,1.311 -0.09,2.64 -0.09,3.97 0,53.98 43.76,97.73 97.73,97.73 13.87,0 27.06,-2.89 39.011,-8.1 22.61,-9.85 40.77,-28.01 50.619,-50.619 5.211,-11.95 8.1,-25.141 8.1,-39.011" /><g
           id="g4716"
           transform="translate(823.3408,465.6621)"><path
             d="m 0,0 c 6.838,2.422 14.382,4.478 22.838,9.614 19.376,11.77 33.787,40.845 41.621,61.968 3.94,10.627 13.224,37.786 13.784,51.051 0.153,3.608 -11.499,8.047 -11.5,8.047 -2.386,0.892 0.229,4.369 2.058,3.455 0.002,-0.001 6.093,-4.723 12.169,-4.723 5.035,0 9.871,1.855 11.541,3.375 1.648,1.5 3.248,-1.484 2.136,-2.288 -0.144,-0.104 -9.626,-4.605 -10.693,-9.323 C 75.942,85.755 66.814,57.83 55.092,38.079 44.193,19.717 30.061,8.331 30.061,8.331 c 3.931,0 9.46,2.493 12.543,3.599 2.512,0.901 4.005,-2.387 1.292,-3.608 C 41.235,7.127 3.854,-5.654 3.766,-5.688 1.938,-6.383 -1.624,-0.575 0,0"
             style="fill:#ffffff;fill-opacity:1;fill-rule:nonzero;stroke:none"
             id="path4718"
             inkscape:connector-curvature="0" /></g><g
           id="g4720"
           transform="translate(842.208,550.9287)"><path
             d="M 0,0 C 2.068,8.566 11.703,23.756 17.924,25.915 19.835,29.753 14.466,37.491 11.49,37.137 -1.203,34.857 -16.233,22.281 -28.015,8.24 c 0.013,0.007 0.024,0.015 0.036,0.024 4.175,2.456 8.718,4.31 13.411,5.588 -34.82,-15.855 -38.534,-67.369 -18.72,-68.171 C -3.662,-55.52 2.814,-7.144 -5.126,11.771 -3.845,10.002 -2.853,8.055 -2.024,6.06 -1.208,4.083 -0.554,2.052 0,0"
             style="fill:#ffffff;fill-opacity:1;fill-rule:nonzero;stroke:none"
             id="path4722"
             inkscape:connector-curvature="0" /></g><g
           id="g4724"
           transform="translate(883.7637,566.7227)"><path
             d="m 0,0 c -0.147,3.921 -6.433,3.373 -8.149,5.133 -4.506,4.617 1.973,16.245 -17.177,16.564 3.722,-2.165 5.889,-6.481 4.389,-11.549 4.688,-0.812 3.04,-9.947 7.166,-10.352 10.922,-1.076 10.622,-8.055 10.622,-16.551 0,-10.194 -0.502,-18.529 -0.074,-22.863 1.453,3.2 4.616,10.627 4.616,10.627 C 1.877,-19.787 0.345,-9.178 0,0"
             style="fill:#ffffff;fill-opacity:1;fill-rule:nonzero;stroke:none"
             id="path4726"
             inkscape:connector-curvature="0" /></g></g></g></g></svg>