<?xml version="1.0" encoding="UTF-8" standalone="no"?>
<!-- Created with Inkscape (http://www.inkscape.org/) -->

<svg
   xmlns:dc="http://purl.org/dc/elements/1.1/"
   xmlns:cc="http://creativecommons.org/ns#"
   xmlns:rdf="http://www.w3.org/1999/02/22-rdf-syntax-ns#"
   xmlns:svg="http://www.w3.org/2000/svg"
   xmlns="http://www.w3.org/2000/svg"
   xmlns:sodipodi="http://sodipodi.sourceforge.net/DTD/sodipodi-0.dtd"
   xmlns:inkscape="http://www.inkscape.org/namespaces/inkscape"
   id="svg4472"
   version="1.1"
   inkscape:version="0.91 r13725"
   xml:space="preserve"
   width="175"
   height="175"
   viewBox="0 0 175 175"
   sodipodi:docname="intestine.svg"><metadata
     id="metadata4478"><rdf:RDF><cc:Work
         rdf:about=""><dc:format>image/svg+xml</dc:format><dc:type
           rdf:resource="http://purl.org/dc/dcmitype/StillImage" /><dc:title></dc:title></cc:Work></rdf:RDF></metadata><defs
     id="defs4476"><clipPath
       clipPathUnits="userSpaceOnUse"
       id="clipPath4488"><path
         d="m 0,1092 1038,0 L 1038,0 0,0 0,1092 Z"
         id="path4490"
         inkscape:connector-curvature="0" /></clipPath><clipPath
       clipPathUnits="userSpaceOnUse"
       id="clipPath4500"><path
         d="m 781.451,266.386 173.912,0 0,-146.237 -173.912,0 0,146.237 z"
         id="path4502"
         inkscape:connector-curvature="0" /></clipPath><clipPath
       clipPathUnits="userSpaceOnUse"
       id="clipPath4536"><path
         d="m 0,1092 1038,0 L 1038,0 0,0 0,1092 Z"
         id="path4538"
         inkscape:connector-curvature="0" /></clipPath><clipPath
       clipPathUnits="userSpaceOnUse"
       id="clipPath4548"><path
         d="m 561.664,262.27 166.433,0 0,-143.96 -166.433,0 0,143.96 z"
         id="path4550"
         inkscape:connector-curvature="0" /></clipPath><clipPath
       clipPathUnits="userSpaceOnUse"
       id="clipPath4596"><path
         d="m 0,1092 1038,0 L 1038,0 0,0 0,1092 Z"
         id="path4598"
         inkscape:connector-curvature="0" /></clipPath><clipPath
       clipPathUnits="userSpaceOnUse"
       id="clipPath4608"><path
         d="m 341.673,282.12 154.189,0 0,-164.2 -154.189,0 0,164.2 z"
         id="path4610"
         inkscape:connector-curvature="0" /></clipPath><clipPath
       clipPathUnits="userSpaceOnUse"
       id="clipPath4628"><path
         d="m 0,1092 1038,0 L 1038,0 0,0 0,1092 Z"
         id="path4630"
         inkscape:connector-curvature="0" /></clipPath><clipPath
       clipPathUnits="userSpaceOnUse"
       id="clipPath4640"><path
         d="m 107.093,258.201 161.075,0 0,-139.921 -161.075,0 0,139.921 z"
         id="path4642"
         inkscape:connector-curvature="0" /></clipPath><clipPath
       clipPathUnits="userSpaceOnUse"
       id="clipPath4692"><path
         d="m 0,1092 1038,0 L 1038,0 0,0 0,1092 Z"
         id="path4694"
         inkscape:connector-curvature="0" /></clipPath><clipPath
       clipPathUnits="userSpaceOnUse"
       id="clipPath4704"><path
         d="m 799.847,599.163 155.52,0 0,-166.953 -155.52,0 0,166.953 z"
         id="path4706"
         inkscape:connector-curvature="0" /></clipPath><clipPath
       clipPathUnits="userSpaceOnUse"
       id="clipPath4732"><path
         d="m 0,1092 1038,0 L 1038,0 0,0 0,1092 Z"
         id="path4734"
         inkscape:connector-curvature="0" /></clipPath><clipPath
       clipPathUnits="userSpaceOnUse"
       id="clipPath4744"><path
         d="m 570.114,604.951 158.627,0 0,-172.541 -158.627,0 0,172.541 z"
         id="path4746"
         inkscape:connector-curvature="0" /></clipPath><clipPath
       clipPathUnits="userSpaceOnUse"
       id="clipPath4812"><path
         d="m 0,1092 1038,0 L 1038,0 0,0 0,1092 Z"
         id="path4814"
         inkscape:connector-curvature="0" /></clipPath><clipPath
       clipPathUnits="userSpaceOnUse"
       id="clipPath4824"><path
         d="m 341.581,589.833 155.211,0 0,-155.893 -155.211,0 0,155.893 z"
         id="path4826"
         inkscape:connector-curvature="0" /></clipPath><clipPath
       clipPathUnits="userSpaceOnUse"
       id="clipPath4860"><path
         d="m 0,1092 1038,0 L 1038,0 0,0 0,1092 Z"
         id="path4862"
         inkscape:connector-curvature="0" /></clipPath><clipPath
       clipPathUnits="userSpaceOnUse"
       id="clipPath4872"><path
         d="m 121.544,579.465 144.885,0 0,-146.375 -144.885,0 0,146.375 z"
         id="path4874"
         inkscape:connector-curvature="0" /></clipPath><clipPath
       clipPathUnits="userSpaceOnUse"
       id="clipPath4912"><path
         d="m 0,1092 1038,0 L 1038,0 0,0 0,1092 Z"
         id="path4914"
         inkscape:connector-curvature="0" /></clipPath><clipPath
       clipPathUnits="userSpaceOnUse"
       id="clipPath4924"><path
         d="m 804.489,883.706 150.878,0 0,-144.676 -150.878,0 0,144.676 z"
         id="path4926"
         inkscape:connector-curvature="0" /></clipPath><clipPath
       clipPathUnits="userSpaceOnUse"
       id="clipPath4952"><path
         d="m 0,1092 1038,0 L 1038,0 0,0 0,1092 Z"
         id="path4954"
         inkscape:connector-curvature="0" /></clipPath><clipPath
       clipPathUnits="userSpaceOnUse"
       id="clipPath4964"><path
         d="m 554.567,872.827 174.169,0 0,-138.287 -174.169,0 0,138.287 z"
         id="path4966"
         inkscape:connector-curvature="0" /></clipPath><clipPath
       clipPathUnits="userSpaceOnUse"
       id="clipPath5000"><path
         d="m 0,1092 1038,0 L 1038,0 0,0 0,1092 Z"
         id="path5002"
         inkscape:connector-curvature="0" /></clipPath><clipPath
       clipPathUnits="userSpaceOnUse"
       id="clipPath5012"><path
         d="m 336.156,902.815 159.371,0 0,-168.275 -159.371,0 0,168.275 z"
         id="path5014"
         inkscape:connector-curvature="0" /></clipPath><clipPath
       clipPathUnits="userSpaceOnUse"
       id="clipPath5076"><path
         d="m 0,1092 1038,0 L 1038,0 0,0 0,1092 Z"
         id="path5078"
         inkscape:connector-curvature="0" /></clipPath><clipPath
       clipPathUnits="userSpaceOnUse"
       id="clipPath5088"><path
         d="m 127.32,898.003 138.328,0 0,-161.613 -138.328,0 0,161.613 z"
         id="path5090"
         inkscape:connector-curvature="0" /></clipPath><clipPath
       clipPathUnits="userSpaceOnUse"
       id="clipPath5120"><path
         d="m 0,1092 1038,0 L 1038,0 0,0 0,1092 Z"
         id="path5122"
         inkscape:connector-curvature="0" /></clipPath></defs><sodipodi:namedview
     pagecolor="#ffffff"
     bordercolor="#666666"
     borderopacity="1"
     objecttolerance="10"
     gridtolerance="10"
     guidetolerance="10"
     inkscape:pageopacity="0"
     inkscape:pageshadow="2"
     inkscape:window-width="1440"
     inkscape:window-height="851"
     id="namedview4474"
     showgrid="false"
     inkscape:zoom="3.7085714"
     inkscape:cx="87.5"
     inkscape:cy="87.5"
     inkscape:window-x="0"
     inkscape:window-y="23"
     inkscape:window-maximized="1"
     inkscape:current-layer="g4816" /><g
     id="g4480"
     inkscape:groupmode="layer"
     inkscape:label="various_internal_organs_icons_design_vector"
     transform="matrix(1.25,0,0,-1.25,0,175)"><g
       id="g4816"
       transform="matrix(0.71625908,0,0,0.71625908,139.83266,69.856943)"><path
         d="m 0,0 c 0,-47.71 -34.19,-87.43 -79.4,-96 -5.94,-1.14 -12.06,-1.73 -18.33,-1.73 -53.97,0 -97.73,43.76 -97.73,97.73 0,53.97 43.76,97.73 97.73,97.73 48.55,0 88.84,-35.41 96.43,-81.82 C -0.44,10.73 0,5.42 0,0"
         style="fill:#40b4ba;fill-opacity:0.90588236;fill-rule:nonzero;stroke:none"
         id="path4818"
         inkscape:connector-curvature="0" /></g><g
       id="g4836"
       transform="matrix(0.71625908,0,0,0.71625908,53.871757,54.97573)"><path
         d="M 0,0 C 0,6.54 -1.742,6.498 -4.84,8.227 -5.683,8.004 -6.53,6.536 -6.53,5.269 1.305,3.012 -4.913,-5.546 0.043,-10.743 -1.03,-3.169 0,-3.896 0,0"
         style="fill:#ffffff;fill-opacity:1;fill-rule:nonzero;stroke:none"
         id="path4838"
         inkscape:connector-curvature="0" /></g><g
       id="g4840"
       transform="matrix(0.71625908,0,0,0.71625908,43.191904,95.505178)"><path
         d="M 0,0 C -1.291,0.12 -2.563,0.496 -3.743,1.035 -4.029,1.172 -4.292,1.342 -4.568,1.494 -4.961,1.079 -5.334,0.646 -5.641,0.172 c -0.488,-0.744 -0.792,-1.585 -0.902,-2.451 -0.203,-1.738 0.157,-3.515 0.561,-5.263 l 0.033,-0.14 -0.073,-0.145 c -0.803,-1.619 -1.08,-3.42 -0.864,-5.18 0.214,-1.768 0.898,-3.473 1.676,-5.137 l 0.189,-0.407 -0.33,-0.306 c -0.832,-0.773 -1.357,-1.853 -1.624,-3.009 -0.277,-1.156 -0.322,-2.391 -0.227,-3.614 0.098,-1.225 0.338,-2.449 0.684,-3.635 0.354,-1.178 0.824,-2.353 1.493,-3.315 l 0.233,-0.333 -0.23,-0.299 c -0.683,-0.887 -1.087,-2.023 -1.25,-3.185 -0.161,-1.166 -0.09,-2.379 0.254,-3.51 0.342,-1.124 0.951,-2.201 1.92,-2.903 0.961,-0.713 2.223,-0.973 3.454,-0.892 -1.21,-0.236 -2.552,-0.106 -3.659,0.58 -1.107,0.673 -1.917,1.788 -2.351,3.001 -0.442,1.219 -0.589,2.527 -0.48,3.821 0.104,1.166 0.431,2.335 1.06,3.382 -0.708,1.039 -1.178,2.159 -1.561,3.304 -0.415,1.257 -0.68,2.555 -0.796,3.88 -0.114,1.322 -0.086,2.676 0.223,4.013 0.284,1.183 0.845,2.353 1.717,3.284 -0.726,1.615 -1.332,3.332 -1.503,5.162 -0.211,1.918 0.244,3.892 1.149,5.56 -0.29,1.744 -0.608,3.564 -0.216,5.378 0.2,0.922 0.61,1.798 1.184,2.526 0.351,0.46 0.766,0.849 1.201,1.216 -0.811,0.461 -1.591,0.966 -2.305,1.538 -0.588,0.468 -1.149,0.961 -1.698,1.471 -2.415,0.47 -4.901,1.568 -5.595,4.659 -3.683,-1.624 -5.51,-10.381 -2.347,-13.368 0.485,-0.003 0.968,-0.02 1.442,-0.059 0.733,-0.084 1.461,-0.188 2.179,-0.361 0.72,-0.165 1.432,-0.367 2.146,-0.686 -1.506,-0.396 -2.996,-0.337 -4.448,-0.214 -0.725,0.083 -1.447,0.17 -2.166,0.322 -0.063,0.012 -0.13,0.029 -0.192,0.042 -2.235,-2.18 -3.23,-9.369 -0.45,-12.73 0.592,-0.062 1.178,-0.149 1.753,-0.252 1.467,-0.306 2.873,-0.675 4.326,-1.285 -1.542,-0.393 -3.096,-0.23 -4.572,0.043 -0.701,0.148 -1.386,0.322 -2.065,0.538 -4.311,-1.81 -4.047,-10.434 -0.01,-12.358 0.669,0.145 1.348,0.265 2.053,0.333 0.853,0.052 1.749,0.055 2.619,-0.203 0.867,-0.235 1.691,-0.733 2.187,-1.456 -1.626,0.614 -3.089,0.534 -4.706,0.394 -0.802,-0.052 -1.624,-0.142 -2.473,-0.135 -0.324,-0.002 -0.649,0.012 -0.972,0.04 -4.816,-3.271 -3.367,-10.309 0.081,-12.725 0,-0.144 0.018,-0.271 0.022,-0.409 0.511,0.809 1.269,1.484 2.15,1.916 1.395,0.686 3.117,0.74 4.419,-0.066 -0.744,-0.111 -1.412,-0.225 -2.054,-0.394 -0.636,-0.171 -1.239,-0.387 -1.81,-0.677 -0.581,-0.269 -1.126,-0.618 -1.67,-1.003 -0.328,-0.241 -0.65,-0.493 -0.98,-0.76 1.438,-13.496 23.917,-10.239 27.122,-2.026 0,0 -3.213,2.245 -6.241,4.014 3.173,0.412 5.237,-1.96 6.505,-3.136 3.05,2.581 6.906,8.826 1.744,14.169 -1.48,-0.064 -6.381,0.138 -7.651,0.205 1.804,1.188 4.337,1.265 6.504,0.857 4.864,3.713 2.217,10.992 -0.607,12.63 -2.898,-0.475 -4.551,-0.922 -6.495,-0.848 1.871,1.177 4.28,1.984 6.472,1.976 0.896,2.233 1.422,7.07 -0.807,9.376 -1.053,-0.126 -4.311,0.375 -6.406,0.385 1.522,1.526 4.122,1.059 6.162,0.383 2.443,1.017 2.102,2.273 1.687,3.352 C 6.333,-4.028 4.678,-1.575 3.817,0.285 2.584,-0.037 1.289,-0.135 0,0"
         style="fill:#ffffff;fill-opacity:1;fill-rule:nonzero;stroke:none"
         id="path4842"
         inkscape:connector-curvature="0" /></g><g
       id="g4844"
       transform="matrix(0.71625908,0,0,0.71625908,40.454863,106.77616)"><path
         d="m 0,0 c 0.669,-1.731 1.659,-3.359 3.22,-4.329 1.93,-1.214 4.308,-1.208 6.569,-1.167 2.277,0.03 4.657,0.147 6.956,-0.595 2.223,-0.677 4.065,-2.329 5.267,-4.266 2.488,0.008 5.03,-0.118 7.484,-0.979 1.26,-0.445 2.468,-1.157 3.448,-2.083 0.905,-0.838 1.631,-1.784 2.362,-2.675 2.021,0.391 4.107,0.442 6.142,0.134 2.022,-0.315 4.009,-0.946 5.806,-2.008 1.951,1.114 3.913,2.279 6.181,2.962 1.19,0.349 2.491,0.487 3.748,0.297 1.041,-0.149 2.018,-0.496 2.942,-0.919 0.489,1.283 1.247,2.421 2.159,3.402 1.067,1.135 2.352,2.07 3.788,2.694 1.436,0.618 3.022,0.912 4.582,0.806 1.429,-0.09 2.81,-0.514 4.07,-1.14 0.587,1.013 1.256,2.026 2.208,2.811 1.049,0.887 2.399,1.339 3.708,1.473 2.64,0.243 5.187,-0.337 7.667,-0.953 0.403,0.082 0.91,0.455 1.339,0.743 0.448,0.312 0.883,0.645 1.319,0.978 0.191,0.146 0.379,0.296 0.569,0.443 0.576,0.635 1.285,1.167 2.031,1.586 0.948,0.546 1.977,0.911 3.014,1.193 0.401,0.098 0.804,0.175 1.208,0.251 0.694,3.795 -4.471,11.178 -8.889,8.695 0.043,-0.635 0.055,-1.273 0.01,-1.92 -0.141,-1.64 -0.632,-3.38 -1.817,-4.615 0.583,3.696 0.513,4.955 0.799,7.205 -3.242,3.852 -13.853,-0.732 -15.649,-5.254 0.455,-0.517 0.882,-1.064 1.25,-1.679 0.434,-0.765 0.783,-1.615 0.898,-2.518 0.126,-0.902 0.002,-1.821 -0.401,-2.614 -0.308,2.172 -0.838,3.271 -1.983,5.152 0.003,-0.02 0.001,-0.037 0.005,-0.054 -4.467,2.857 -14.087,-0.471 -13.439,-6.029 0.956,-1.473 1.538,-3.325 1.05,-4.985 -0.091,0.189 -2.343,4.953 -2.44,5.17 -2.569,0.88 -6.762,-0.728 -8.33,-3.661 0.46,-2.041 0.607,-4.464 -0.641,-6.159 -0.003,2.904 -0.264,3.473 -0.53,6.136 -0.34,2.963 -6.691,5.903 -9.743,2.434 -0.141,-0.641 -1.824,-6.451 -1.984,-7.09 -0.808,2.106 0.277,5.492 1.033,7.619 -1.518,4.936 -6.415,6.18 -10.248,5.493 0,0 -0.101,-1.704 -3.252,-5.505 0.393,2.074 1.307,4.046 2.553,5.799 C 25,4.528 19.967,7.59 16.07,6.443 13.975,5.825 14.001,4.995 12.076,2.509 12.113,4.084 12.885,5.677 13.71,7.003 10.041,11.81 -1.127,10.935 -2.666,5.897 -2.692,5.891 -2.717,5.879 -2.743,5.874 -2.293,5.282 -1.877,4.671 -1.479,4.031 -0.768,2.823 -0.124,1.482 0,0"
         style="fill:#ffffff;fill-opacity:1;fill-rule:nonzero;stroke:none"
         id="path4846"
         inkscape:connector-curvature="0" /></g><g
       id="g4848"
       transform="matrix(0.71625908,0,0,0.71625908,101.12702,81.081368)"><path
         d="m 0,0 c -1.202,-1.833 -2.347,-3.773 -2.788,-5.854 -0.214,-1.036 -0.183,-2.09 0.151,-3.067 0.333,-0.975 0.93,-1.87 1.597,-2.727 l 0.228,-0.292 -0.226,-0.315 c -0.637,-0.883 -1.015,-1.978 -1.256,-3.09 -0.235,-1.117 -0.315,-2.275 -0.274,-3.428 0.08,-2.312 0.642,-4.604 1.557,-6.735 l 0.143,-0.336 -0.244,-0.282 c -0.683,-0.788 -1.138,-1.856 -1.485,-2.937 -0.347,-1.087 -0.585,-2.225 -0.761,-3.372 -0.343,-2.297 -0.434,-4.647 -0.28,-6.954 l 0.033,-0.509 -0.48,-0.14 c -2.456,-0.718 -4.723,-1.941 -6.795,-3.488 -2.09,-1.51 -4.004,-3.406 -6.512,-4.618 l -0.197,-0.096 -0.212,0.064 c -2.46,0.755 -4.912,1.502 -7.414,1.668 -2.497,0.208 -5.012,-0.253 -7.406,-1.096 l -0.083,-0.028 -0.066,0.003 c -1.143,0.046 -2.13,0.376 -3.123,0.697 -0.984,0.336 -1.944,0.725 -2.893,1.111 -0.228,0.092 -0.494,0.201 -0.672,0.257 0.06,0 -0.04,0 -0.099,-0.003 -0.068,0.002 -0.125,-0.004 -0.178,-0.009 -0.108,-0.005 -0.226,-0.024 -0.342,-0.042 -0.461,-0.078 -0.913,-0.252 -1.334,-0.485 -0.843,-0.472 -1.579,-1.162 -2.183,-1.952 -1.206,-1.59 -1.964,-3.549 -2.145,-5.559 -0.18,-2.002 0.288,-4.127 1.612,-5.721 -1.411,1.514 -2.025,3.672 -1.907,5.741 0.106,2.078 0.799,4.128 2.003,5.859 0.61,0.856 1.356,1.649 2.297,2.2 0.469,0.273 0.982,0.487 1.529,0.596 0.14,0.027 0.272,0.05 0.421,0.06 l 0.206,0.016 c 0.067,-0.004 0.099,0.023 0.284,-0.012 0.313,-0.088 0.521,-0.178 0.773,-0.269 0.961,-0.363 1.912,-0.722 2.877,-1.025 0.937,-0.285 1.915,-0.559 2.815,-0.58 2.419,0.909 5.045,1.46 7.682,1.305 2.585,-0.147 5.043,-0.871 7.438,-1.58 2.178,1.11 4.029,2.91 6.118,4.457 1.996,1.519 4.259,2.773 6.676,3.567 -0.129,2.264 0.009,4.52 0.35,6.751 0.193,1.197 0.452,2.386 0.833,3.556 0.355,1.051 0.798,2.106 1.531,3.048 -0.873,2.171 -1.408,4.486 -1.473,6.836 -0.033,1.235 0.06,2.474 0.327,3.693 0.24,1.096 0.648,2.179 1.299,3.15 -0.594,0.834 -1.146,1.736 -1.469,2.762 -0.365,1.144 -0.364,2.391 -0.097,3.525 0.529,2.204 1.7,4.083 2.919,5.869 -0.802,1.09 -1.416,2.361 -1.603,3.716 -0.222,1.432 -0.084,2.863 0.136,4.248 0.472,2.776 1.241,5.465 1.985,8.159 -0.586,-2.731 -1.244,-5.458 -1.606,-8.212 -0.165,-1.373 -0.234,-2.769 0.024,-4.098 0.248,-1.335 0.898,-2.541 1.746,-3.6 L 0.14,0.213 0,0 Z m 3.017,-25.645 c 2.014,0.521 4.321,0.848 6.397,0.536 1.976,1.288 3.484,10.137 0.502,13.426 -2.769,0.172 -3.745,0.164 -6.054,-0.015 1.644,1.341 4.151,1.538 6.263,1.199 2.622,2.858 2.206,8.323 0.558,10.98 -3.098,0.816 -3.942,0.834 -7.244,1.346 1.932,0.753 4.136,0.742 6.188,0.202 3.31,0.992 5.594,8.587 2.525,12.95 -0.725,0.468 -1.443,0.929 -2.177,1.332 -0.657,0.379 -1.339,0.681 -2.037,0.943 -2.763,0.402 -5.453,0.25 -8.162,-0.174 -2.533,-0.359 -5.095,-0.917 -7.728,-1.105 -4.338,-6.06 -5.4,-8.226 -2.551,-15.035 1.742,-1.188 4.175,-1.465 5.068,-2.705 -1.537,0.094 -3.826,0.491 -5.244,1.171 -2.966,-2.295 -3.208,-8.334 -0.011,-11.441 1.687,0.401 3.807,0.38 4.832,-0.931 -1.907,0.023 -3.347,-0.138 -4.375,-0.097 -3.595,-1.842 -1.789,-10.518 0.737,-12.007 1.48,0.06 3.049,-0.183 4.273,-0.994 -1.417,-0.366 -3.795,-0.387 -5.612,0.002 -2.61,-2.024 -2.93,-6.361 -1.919,-8.659 0.037,-0.018 0.074,-0.037 0.109,-0.055 1.369,-0.657 2.997,-1.538 3.829,-2.7 -1.687,0.1 -3.561,0.816 -4.676,2.243 -1.782,-0.335 -4.082,-1.503 -5.206,-2.938 0.17,-2.135 0.148,-4.763 -0.684,-6.701 -0.57,2.115 -0.635,4.646 -0.288,6.51 -2.532,5.453 -11.544,4.978 -14,0.171 1.335,-1.568 2.162,-3.667 1.27,-5.486 -0.703,3.276 -1.948,4.062 -3.439,6.581 -7.514,3.163 -16.743,-5.538 -16.743,-15.807 0,-2.028 0.381,-4.06 1.13,-6.015 0.49,0.093 0.988,0.162 1.498,0.207 0.606,0.029 1.306,0.03 1.905,-0.098 0.651,-0.12 1.283,-0.344 1.821,-0.744 -0.665,-0.115 -1.259,-0.179 -1.845,-0.245 -0.635,-0.072 -1.172,-0.128 -1.799,-0.179 -0.499,-0.02 -1.01,-0.032 -1.532,10e-4 -1.343,-0.411 -1.886,-1.508 -2.049,-2.789 l 8.267,-18.547 c -4.028,3.646 -7.286,11.658 -8.328,17.532 0.052,-3.123 4.223,-27.573 8.73,-27.573 3.949,0 10.535,23.5 10.805,26.582 -1.679,-5.183 -5.254,-11.855 -8.459,-15.061 l 8.601,16.632 c 0.013,1.09 -0.236,1.927 -0.793,2.485 -2.556,0.665 -4.688,0.826 -7.151,0.206 1.213,1.571 3.685,1.925 5.705,1.329 0.283,0.432 0.683,0.804 1.081,0.865 0.113,1.85 0.741,5.559 1.455,7.739 0.802,-2.459 0.279,-5.687 -0.832,-7.955 0.004,-0.006 0.009,-0.006 0.015,-0.009 3.291,-3.38 10.732,-2.924 14.692,0.003 0.143,2.965 0.356,6.21 1.552,8.805 0.099,-2.57 0.039,-5.676 -0.403,-8.351 6.369,-9.091 15.613,-3.211 17.294,0.642 -1.524,2.635 -2.942,4.334 -4.001,6.652 1.826,-1.518 3.652,-3.468 4.792,-5.527 3.443,0.227 10.279,4.649 10.576,12.312 -2.324,1.529 -4.076,2.247 -6.071,3.57 2.345,-0.221 4.738,-1.06 6.74,-2.562 4.508,3.67 4.008,12.471 0.93,16.18 -3.244,0.87 -5.902,0.454 -8.727,1.171"
         style="fill:#ffffff;fill-opacity:1;fill-rule:nonzero;stroke:none"
         id="path4850"
         inkscape:connector-curvature="0" /></g><g
       id="g4852"
       transform="matrix(0.71625908,0,0,0.71625908,64.844344,90.86561)"><path
         d="m 0,0 c -0.109,-1.519 -1.201,-3.662 -1.201,-4.338 0,-3.501 6.412,-7.451 13.433,-2.664 -0.445,1.948 0.051,4.255 0.659,5.523 0.72,-1.638 0.504,-3.765 0.132,-5.516 2.511,-4.869 11.525,-2.095 12.992,2.256 -0.562,1.49 -0.799,3.199 -0.446,4.739 0.916,-1.288 1.395,-3.192 1.506,-4.697 4.063,-3.056 8.218,-1.244 11.094,1.106 0.559,3.207 1.269,5.82 5.151,6.761 -0.094,-0.128 -0.175,-0.244 -0.265,-0.369 2.344,0.791 4.706,1.48 7.189,1.872 1.529,0.22 3.101,0.327 4.663,0.162 0.34,-0.035 0.681,-0.086 1.02,-0.148 0.674,0.174 1.388,0.237 2.097,0.156 1.152,-0.121 2.241,-0.547 3.225,-1.085 0.126,-0.073 0.238,-0.16 0.359,-0.237 6.647,3.193 7.701,11.109 1.44,15.924 -1.163,-0.301 -1.828,-0.467 -3.125,-0.913 -0.926,-0.327 -1.815,-0.701 -2.753,-1.151 -0.046,-0.042 -0.094,-0.083 -0.141,-0.124 -0.418,-0.358 -0.845,-0.706 -1.284,-1.043 -0.469,-0.318 -0.822,-0.701 -1.498,-0.861 l -0.008,-0.004 -0.03,0.007 c -2.49,0.516 -5.063,0.969 -7.541,0.639 -1.23,-0.16 -2.407,-0.599 -3.311,-1.4 -0.915,-0.79 -1.561,-1.876 -2.151,-2.991 l -0.191,-0.357 -0.37,0.188 c -1.282,0.647 -2.678,1.051 -4.09,1.105 -1.411,0.058 -2.824,-0.24 -4.104,-0.831 -1.284,-0.58 -2.45,-1.435 -3.41,-2.475 C 28.088,8.196 27.312,6.964 26.939,5.648 L 26.753,4.985 26.132,5.294 C 25.113,5.799 24.052,6.199 22.969,6.343 21.885,6.496 20.789,6.374 19.72,6.052 17.577,5.396 15.554,4.158 13.529,2.981 L 13.198,2.787 12.87,2.993 C 11.182,4.055 9.214,4.727 7.21,5.049 5.201,5.372 3.131,5.329 1.139,4.921 L 0.79,4.849 0.569,5.118 C -0.252,6.121 -1,7.14 -1.88,7.967 c -0.874,0.835 -1.909,1.458 -3.053,1.875 -2.299,0.821 -4.856,0.984 -7.372,1.04 l -0.29,0.007 -0.13,0.233 c -1.079,1.935 -2.733,3.535 -4.838,4.242 -2.093,0.743 -4.408,0.699 -6.702,0.735 -2.265,0.05 -4.761,0.136 -6.752,1.505 -1.569,1.065 -2.486,2.723 -3.063,4.452 -0.97,1.165 -1.769,2.297 -2.534,3.532 -0.409,0.701 -0.802,1.437 -1.11,2.218 -5.034,-1.829 -6.726,-5.468 -5.618,-10.573 0.687,-3.167 3.177,-4.259 4.533,-5.694 1.867,-0.926 3.573,-2.063 5.37,-2.877 1.083,-0.516 2.21,-0.906 3.378,-1.211 1.173,-0.302 2.389,-0.482 3.648,-0.688 1.796,-0.581 3.251,-2.516 4.029,-4.236 0,0 3.362,-1.03 4.953,-0.852 0.004,0.031 0.006,0.065 0.011,0.097 0.304,2.197 1.776,4.627 3.898,5.834 -0.913,-2.034 -1.564,-2.829 -2.947,-6.092 l -0.005,-0.01 c 0.301,-4.299 8.056,-7.471 13.857,-6.213 C -2.478,-2.786 -1.366,-0.988 0,0"
         style="fill:#ffffff;fill-opacity:1;fill-rule:nonzero;stroke:none"
         id="path4854"
         inkscape:connector-curvature="0" /></g></g></svg>