<?xml version="1.0" encoding="UTF-8" standalone="no"?>
<!-- Created with Inkscape (http://www.inkscape.org/) -->

<svg
   xmlns:dc="http://purl.org/dc/elements/1.1/"
   xmlns:cc="http://creativecommons.org/ns#"
   xmlns:rdf="http://www.w3.org/1999/02/22-rdf-syntax-ns#"
   xmlns:svg="http://www.w3.org/2000/svg"
   xmlns="http://www.w3.org/2000/svg"
   xmlns:sodipodi="http://sodipodi.sourceforge.net/DTD/sodipodi-0.dtd"
   xmlns:inkscape="http://www.inkscape.org/namespaces/inkscape"
   id="svg4472"
   version="1.1"
   inkscape:version="0.91 r13725"
   xml:space="preserve"
   width="175"
   height="175"
   viewBox="0 0 175 175"
   sodipodi:docname="kidney.svg"><metadata
     id="metadata4478"><rdf:RDF><cc:Work
         rdf:about=""><dc:format>image/svg+xml</dc:format><dc:type
           rdf:resource="http://purl.org/dc/dcmitype/StillImage" /><dc:title></dc:title></cc:Work></rdf:RDF></metadata><defs
     id="defs4476"><clipPath
       clipPathUnits="userSpaceOnUse"
       id="clipPath4488"><path
         d="m 0,1092 1038,0 L 1038,0 0,0 0,1092 Z"
         id="path4490"
         inkscape:connector-curvature="0" /></clipPath><clipPath
       clipPathUnits="userSpaceOnUse"
       id="clipPath4500"><path
         d="m 781.451,266.386 173.912,0 0,-146.237 -173.912,0 0,146.237 z"
         id="path4502"
         inkscape:connector-curvature="0" /></clipPath><clipPath
       clipPathUnits="userSpaceOnUse"
       id="clipPath4536"><path
         d="m 0,1092 1038,0 L 1038,0 0,0 0,1092 Z"
         id="path4538"
         inkscape:connector-curvature="0" /></clipPath><clipPath
       clipPathUnits="userSpaceOnUse"
       id="clipPath4548"><path
         d="m 561.664,262.27 166.433,0 0,-143.96 -166.433,0 0,143.96 z"
         id="path4550"
         inkscape:connector-curvature="0" /></clipPath><clipPath
       clipPathUnits="userSpaceOnUse"
       id="clipPath4596"><path
         d="m 0,1092 1038,0 L 1038,0 0,0 0,1092 Z"
         id="path4598"
         inkscape:connector-curvature="0" /></clipPath><clipPath
       clipPathUnits="userSpaceOnUse"
       id="clipPath4608"><path
         d="m 341.673,282.12 154.189,0 0,-164.2 -154.189,0 0,164.2 z"
         id="path4610"
         inkscape:connector-curvature="0" /></clipPath><clipPath
       clipPathUnits="userSpaceOnUse"
       id="clipPath4628"><path
         d="m 0,1092 1038,0 L 1038,0 0,0 0,1092 Z"
         id="path4630"
         inkscape:connector-curvature="0" /></clipPath><clipPath
       clipPathUnits="userSpaceOnUse"
       id="clipPath4640"><path
         d="m 107.093,258.201 161.075,0 0,-139.921 -161.075,0 0,139.921 z"
         id="path4642"
         inkscape:connector-curvature="0" /></clipPath><clipPath
       clipPathUnits="userSpaceOnUse"
       id="clipPath4692"><path
         d="m 0,1092 1038,0 L 1038,0 0,0 0,1092 Z"
         id="path4694"
         inkscape:connector-curvature="0" /></clipPath><clipPath
       clipPathUnits="userSpaceOnUse"
       id="clipPath4704"><path
         d="m 799.847,599.163 155.52,0 0,-166.953 -155.52,0 0,166.953 z"
         id="path4706"
         inkscape:connector-curvature="0" /></clipPath><clipPath
       clipPathUnits="userSpaceOnUse"
       id="clipPath4732"><path
         d="m 0,1092 1038,0 L 1038,0 0,0 0,1092 Z"
         id="path4734"
         inkscape:connector-curvature="0" /></clipPath><clipPath
       clipPathUnits="userSpaceOnUse"
       id="clipPath4744"><path
         d="m 570.114,604.951 158.627,0 0,-172.541 -158.627,0 0,172.541 z"
         id="path4746"
         inkscape:connector-curvature="0" /></clipPath><clipPath
       clipPathUnits="userSpaceOnUse"
       id="clipPath4812"><path
         d="m 0,1092 1038,0 L 1038,0 0,0 0,1092 Z"
         id="path4814"
         inkscape:connector-curvature="0" /></clipPath><clipPath
       clipPathUnits="userSpaceOnUse"
       id="clipPath4824"><path
         d="m 341.581,589.833 155.211,0 0,-155.893 -155.211,0 0,155.893 z"
         id="path4826"
         inkscape:connector-curvature="0" /></clipPath><clipPath
       clipPathUnits="userSpaceOnUse"
       id="clipPath4860"><path
         d="m 0,1092 1038,0 L 1038,0 0,0 0,1092 Z"
         id="path4862"
         inkscape:connector-curvature="0" /></clipPath><clipPath
       clipPathUnits="userSpaceOnUse"
       id="clipPath4872"><path
         d="m 121.544,579.465 144.885,0 0,-146.375 -144.885,0 0,146.375 z"
         id="path4874"
         inkscape:connector-curvature="0" /></clipPath><clipPath
       clipPathUnits="userSpaceOnUse"
       id="clipPath4912"><path
         d="m 0,1092 1038,0 L 1038,0 0,0 0,1092 Z"
         id="path4914"
         inkscape:connector-curvature="0" /></clipPath><clipPath
       clipPathUnits="userSpaceOnUse"
       id="clipPath4924"><path
         d="m 804.489,883.706 150.878,0 0,-144.676 -150.878,0 0,144.676 z"
         id="path4926"
         inkscape:connector-curvature="0" /></clipPath><clipPath
       clipPathUnits="userSpaceOnUse"
       id="clipPath4952"><path
         d="m 0,1092 1038,0 L 1038,0 0,0 0,1092 Z"
         id="path4954"
         inkscape:connector-curvature="0" /></clipPath><clipPath
       clipPathUnits="userSpaceOnUse"
       id="clipPath4964"><path
         d="m 554.567,872.827 174.169,0 0,-138.287 -174.169,0 0,138.287 z"
         id="path4966"
         inkscape:connector-curvature="0" /></clipPath><clipPath
       clipPathUnits="userSpaceOnUse"
       id="clipPath5000"><path
         d="m 0,1092 1038,0 L 1038,0 0,0 0,1092 Z"
         id="path5002"
         inkscape:connector-curvature="0" /></clipPath><clipPath
       clipPathUnits="userSpaceOnUse"
       id="clipPath5012"><path
         d="m 336.156,902.815 159.371,0 0,-168.275 -159.371,0 0,168.275 z"
         id="path5014"
         inkscape:connector-curvature="0" /></clipPath><clipPath
       clipPathUnits="userSpaceOnUse"
       id="clipPath5076"><path
         d="m 0,1092 1038,0 L 1038,0 0,0 0,1092 Z"
         id="path5078"
         inkscape:connector-curvature="0" /></clipPath><clipPath
       clipPathUnits="userSpaceOnUse"
       id="clipPath5088"><path
         d="m 127.32,898.003 138.328,0 0,-161.613 -138.328,0 0,161.613 z"
         id="path5090"
         inkscape:connector-curvature="0" /></clipPath><clipPath
       clipPathUnits="userSpaceOnUse"
       id="clipPath5120"><path
         d="m 0,1092 1038,0 L 1038,0 0,0 0,1092 Z"
         id="path5122"
         inkscape:connector-curvature="0" /></clipPath></defs><sodipodi:namedview
     pagecolor="#ffffff"
     bordercolor="#666666"
     borderopacity="1"
     objecttolerance="10"
     gridtolerance="10"
     guidetolerance="10"
     inkscape:pageopacity="0"
     inkscape:pageshadow="2"
     inkscape:window-width="1440"
     inkscape:window-height="851"
     id="namedview4474"
     showgrid="false"
     inkscape:zoom="3.7085714"
     inkscape:cx="87.5"
     inkscape:cy="87.5"
     inkscape:window-x="0"
     inkscape:window-y="23"
     inkscape:window-maximized="1"
     inkscape:current-layer="g4540" /><g
     id="g4480"
     inkscape:groupmode="layer"
     inkscape:label="various_internal_organs_icons_design_vector"
     transform="matrix(1.25,0,0,-1.25,0,175)"><g
       id="g4540"
       transform="matrix(0.71629573,0,0,0.71629573,139.99701,70.131786)"><path
         d="M 0,0 C 0,-3.79 -0.22,-7.52 -0.64,-11.189 -2.76,-29.83 -10.12,-46.88 -21.229,-60.819 -37.33,-81.069 -61.319,-94.77 -88.55,-97.3 c -0.15,-0.01 -0.3,-0.03 -0.45,-0.04 -2.87,-0.26 -5.779,-0.389 -8.72,-0.389 -53.98,0 -97.73,43.75 -97.73,97.729 0,2.94 0.131,5.851 0.39,8.721 4.081,46.189 40.3,83.139 86.161,88.359 3.67,0.431 7.399,0.641 11.179,0.641 C -43.75,97.721 0,53.971 0,0"
         style="fill:#40b4ba;fill-opacity:0.90588236;fill-rule:nonzero;stroke:none"
         id="path4542"
         inkscape:connector-curvature="0" /></g><g
       id="g4560"
       transform="matrix(0.71629573,0,0,0.71629573,91.591106,62.658243)"><path
         d="M 0,0 0.268,-0.518 C 0.511,-0.979 0.764,-1.453 1.01,-1.92 1.377,-1.618 1.751,-1.344 2.142,-1.104 0.525,2.376 -0.534,5.942 -0.915,9.141 -2.995,9.619 -5.262,9.754 -7.833,9.519 -7.085,9.122 -6.376,8.652 -5.71,8.089 -3.248,6.018 -1.603,3.08 0,0"
         style="fill:#ffffff;fill-opacity:1;fill-rule:nonzero;stroke:none"
         id="path4562"
         inkscape:connector-curvature="0" /></g><g
       id="g4564"
       transform="matrix(0.71629573,0,0,0.71629573,115.25057,55.44844)"><path
         d="M 0,0 -0.12,0.104 C -0.371,0.218 -0.627,0.325 -0.894,0.42 -1.498,0.638 -2.139,0.803 -2.796,0.946 -4.107,1.223 -5.491,1.379 -6.854,1.579 -5.487,1.782 -4.14,2.034 -2.726,2.156 -2.02,2.217 -1.3,2.245 -0.562,2.21 -0.26,2.198 0.049,2.164 0.354,2.131 10.378,11.053 8.809,21.737 6.957,27.352 4.684,34.234 0.18,39.163 -2.199,39.89 c -0.334,-0.3 -0.68,-0.597 -1.019,-0.856 -0.562,-0.435 -1.147,-0.842 -1.756,-1.204 -1.213,-0.716 -2.543,-1.296 -3.904,-1.434 1.255,0.535 2.263,1.419 3.141,2.379 0.436,0.485 0.84,0.996 1.21,1.526 0.276,0.391 0.506,0.765 0.738,1.16 -0.207,8.904 -10.371,14.872 -19.887,14.872 -7.053,0 -12.068,-2.513 -14.122,-7.074 -1.996,-4.435 -0.949,-10.287 2.546,-14.237 1.571,-1.776 3.511,-2.97 5.609,-3.46 l 1.23,-0.288 c 0.29,-0.051 0.58,-0.104 0.872,-0.144 0.755,-0.104 1.523,-0.155 2.293,-0.152 1.544,0.008 3.114,0.234 4.63,0.761 -1.333,-0.892 -2.863,-1.542 -4.465,-1.965 -0.802,-0.211 -1.624,-0.365 -2.458,-0.466 -0.418,-0.049 -0.838,-0.086 -1.263,-0.11 -0.187,-0.01 -0.35,-0.009 -0.527,-0.013 -1.82,-2.151 -2.601,-5.132 -2.29,-8.895 0.263,-3.255 1.373,-7.026 3.128,-10.695 l 0.043,-0.002 c 0.344,-0.027 0.679,-0.068 1.013,-0.121 0.665,-0.108 1.309,-0.272 1.928,-0.476 1.238,-0.407 2.367,-0.967 3.474,-1.548 -1.235,0.197 -2.473,0.361 -3.671,0.35 -0.597,-0.005 -1.185,-0.052 -1.751,-0.147 -0.283,-0.048 -0.566,-0.109 -0.836,-0.176 l -0.48,-0.142 -0.024,-0.01 c -0.95,-0.42 -1.844,-1.082 -2.654,-1.967 -4.558,-4.913 -5.754,-15.127 -2.619,-22.313 1.792,-4.105 5.717,-9.003 14.234,-9.003 12.575,0 19.772,7.156 22.109,13.283 C 4.173,-7.708 3.319,-2.971 0,0"
         style="fill:#ffffff;fill-opacity:1;fill-rule:nonzero;stroke:none"
         id="path4566"
         inkscape:connector-curvature="0" /></g><g
       id="g4568"
       transform="matrix(0.71629573,0,0,0.71629573,90.816074,71.017343)"><path
         d="M 0,0 C -0.021,3.167 0.694,5.855 2.146,8.02 0.63,8.627 -0.775,9.551 -2.027,10.737 -6.75,5.719 -13.387,2.113 -19.896,1.088 c 0.202,-1.214 0.64,-2.392 1.251,-3.418 C -11.395,-0.137 -6.751,1.299 0,0"
         style="fill:#ffffff;fill-opacity:1;fill-rule:nonzero;stroke:none"
         id="path4570"
         inkscape:connector-curvature="0" /></g><g
       id="g4572"
       transform="matrix(0.71629573,0,0,0.71629573,80.191904,25.229714)"><path
         d="M 0,0 C 1.082,-0.348 2.207,-0.299 3.152,0.137 L 3.136,0.376 C 1.887,18.141 0.485,38.239 13.341,51.924 12.186,54.104 10.981,56.155 9.459,57.716 -3.109,44.639 -1.857,26.791 -0.522,7.914 -0.336,5.276 -0.147,2.634 0,0"
         style="fill:#ffffff;fill-opacity:1;fill-rule:nonzero;stroke:none"
         id="path4574"
         inkscape:connector-curvature="0" /></g><g
       id="g4576"
       transform="matrix(0.71629573,0,0,0.71629573,48.402842,71.294406)"><path
         d="m 0,0 -0.268,-0.518 c -0.241,-0.461 -0.495,-0.933 -0.741,-1.4 -0.366,0.3 -0.74,0.576 -1.133,0.814 1.619,3.48 2.676,7.046 3.058,10.245 C 2.997,9.619 5.262,9.754 7.834,9.519 7.085,9.122 6.376,8.653 5.71,8.089 3.248,6.02 1.604,3.08 0,0"
         style="fill:#ffffff;fill-opacity:1;fill-rule:nonzero;stroke:none"
         id="path4578"
         inkscape:connector-curvature="0" /></g><g
       id="g4580"
       transform="matrix(0.71629573,0,0,0.71629573,24.744741,64.084531)"><path
         d="M 0,0 0.12,0.106 C 0.369,0.218 0.627,0.327 0.892,0.42 1.497,0.638 2.137,0.805 2.795,0.946 4.105,1.224 5.489,1.379 6.853,1.579 5.487,1.782 4.138,2.034 2.724,2.157 2.018,2.217 1.298,2.247 0.56,2.21 0.258,2.198 -0.051,2.164 -0.355,2.131 c -10.023,8.924 -8.454,19.606 -6.602,25.221 2.272,6.883 6.775,11.813 9.155,12.54 0.335,-0.3 0.679,-0.599 1.018,-0.858 0.562,-0.435 1.149,-0.842 1.756,-1.202 1.214,-0.718 2.543,-1.298 3.905,-1.436 -1.256,0.536 -2.264,1.419 -3.142,2.379 -0.436,0.485 -0.839,0.996 -1.208,1.526 -0.278,0.391 -0.507,0.765 -0.74,1.16 0.207,8.906 10.373,14.874 19.887,14.874 7.055,0 12.068,-2.515 14.124,-7.076 1.996,-4.435 0.947,-10.287 -2.548,-14.237 -1.569,-1.774 -3.509,-2.97 -5.608,-3.46 l -1.231,-0.288 c -0.29,-0.05 -0.58,-0.104 -0.871,-0.144 -0.754,-0.104 -1.522,-0.153 -2.294,-0.151 -1.544,0.007 -3.114,0.233 -4.63,0.76 1.335,-0.892 2.863,-1.542 4.465,-1.965 0.802,-0.211 1.624,-0.365 2.459,-0.466 0.418,-0.047 0.837,-0.086 1.262,-0.11 0.187,-0.009 0.352,-0.009 0.529,-0.011 1.818,-2.151 2.599,-5.134 2.29,-8.897 C 31.358,17.035 30.246,13.264 28.494,9.595 L 28.45,9.593 C 28.104,9.566 27.771,9.525 27.436,9.474 26.771,9.365 26.127,9.2 25.507,8.996 24.269,8.589 23.14,8.029 22.034,7.449 c 1.234,0.196 2.472,0.36 3.67,0.349 0.599,-0.003 1.186,-0.05 1.753,-0.147 0.281,-0.047 0.564,-0.107 0.834,-0.176 l 0.48,-0.142 0.024,-0.01 c 0.951,-0.42 1.844,-1.082 2.654,-1.967 4.558,-4.913 5.754,-15.127 2.619,-22.311 -1.791,-4.107 -5.716,-9.005 -14.232,-9.005 -12.577,0 -19.772,7.156 -22.111,13.283 C -4.173,-7.708 -3.321,-2.971 0,0"
         style="fill:#ffffff;fill-opacity:1;fill-rule:nonzero;stroke:none"
         id="path4582"
         inkscape:connector-curvature="0" /></g><g
       id="g4584"
       transform="matrix(0.71629573,0,0,0.71629573,58.193101,78.285954)"><path
         d="M 0,0 -0.001,0.077 0.26,1.184 c -5.06,1.192 -9.192,1.428 -12.846,0.725 0.023,3.167 -0.694,5.856 -2.146,8.02 1.516,0.607 2.923,1.533 4.173,2.717 C -5.836,7.628 0.801,4.022 7.31,2.997 7.108,1.785 6.671,0.605 6.059,-0.421 4.207,0.142 2.267,0.708 0.288,1.182 L 0.005,0 0,0 Z"
         style="fill:#ffffff;fill-opacity:1;fill-rule:nonzero;stroke:none"
         id="path4586"
         inkscape:connector-curvature="0" /></g><g
       id="g4588"
       transform="matrix(0.71629573,0,0,0.71629573,59.802689,33.865805)"><path
         d="m 0,0 c -1.082,-0.348 -2.208,-0.299 -3.151,0.137 l 0.016,0.239 c 1.247,17.765 2.648,37.865 -10.206,51.548 1.156,2.18 2.36,4.231 3.881,5.792 C 3.109,44.64 1.857,26.791 0.522,7.914 0.335,5.276 0.146,2.634 0,0"
         style="fill:#ffffff;fill-opacity:1;fill-rule:nonzero;stroke:none"
         id="path4590"
         inkscape:connector-curvature="0" /></g></g></svg>