<?xml version="1.0" encoding="UTF-8" standalone="no"?>
<!-- Created with Inkscape (http://www.inkscape.org/) -->

<svg
   xmlns:dc="http://purl.org/dc/elements/1.1/"
   xmlns:cc="http://creativecommons.org/ns#"
   xmlns:rdf="http://www.w3.org/1999/02/22-rdf-syntax-ns#"
   xmlns:svg="http://www.w3.org/2000/svg"
   xmlns="http://www.w3.org/2000/svg"
   xmlns:sodipodi="http://sodipodi.sourceforge.net/DTD/sodipodi-0.dtd"
   xmlns:inkscape="http://www.inkscape.org/namespaces/inkscape"
   id="svg4472"
   version="1.1"
   inkscape:version="0.91 r13725"
   xml:space="preserve"
   width="175"
   height="175"
   viewBox="0 0 175 175"
   sodipodi:docname="lungs.svg"><metadata
     id="metadata4478"><rdf:RDF><cc:Work
         rdf:about=""><dc:format>image/svg+xml</dc:format><dc:type
           rdf:resource="http://purl.org/dc/dcmitype/StillImage" /><dc:title></dc:title></cc:Work></rdf:RDF></metadata><defs
     id="defs4476"><clipPath
       clipPathUnits="userSpaceOnUse"
       id="clipPath4488"><path
         d="m 0,1092 1038,0 L 1038,0 0,0 0,1092 Z"
         id="path4490"
         inkscape:connector-curvature="0" /></clipPath><clipPath
       clipPathUnits="userSpaceOnUse"
       id="clipPath4500"><path
         d="m 781.451,266.386 173.912,0 0,-146.237 -173.912,0 0,146.237 z"
         id="path4502"
         inkscape:connector-curvature="0" /></clipPath><clipPath
       clipPathUnits="userSpaceOnUse"
       id="clipPath4536"><path
         d="m 0,1092 1038,0 L 1038,0 0,0 0,1092 Z"
         id="path4538"
         inkscape:connector-curvature="0" /></clipPath><clipPath
       clipPathUnits="userSpaceOnUse"
       id="clipPath4548"><path
         d="m 561.664,262.27 166.433,0 0,-143.96 -166.433,0 0,143.96 z"
         id="path4550"
         inkscape:connector-curvature="0" /></clipPath><clipPath
       clipPathUnits="userSpaceOnUse"
       id="clipPath4596"><path
         d="m 0,1092 1038,0 L 1038,0 0,0 0,1092 Z"
         id="path4598"
         inkscape:connector-curvature="0" /></clipPath><clipPath
       clipPathUnits="userSpaceOnUse"
       id="clipPath4608"><path
         d="m 341.673,282.12 154.189,0 0,-164.2 -154.189,0 0,164.2 z"
         id="path4610"
         inkscape:connector-curvature="0" /></clipPath><clipPath
       clipPathUnits="userSpaceOnUse"
       id="clipPath4628"><path
         d="m 0,1092 1038,0 L 1038,0 0,0 0,1092 Z"
         id="path4630"
         inkscape:connector-curvature="0" /></clipPath><clipPath
       clipPathUnits="userSpaceOnUse"
       id="clipPath4640"><path
         d="m 107.093,258.201 161.075,0 0,-139.921 -161.075,0 0,139.921 z"
         id="path4642"
         inkscape:connector-curvature="0" /></clipPath><clipPath
       clipPathUnits="userSpaceOnUse"
       id="clipPath4692"><path
         d="m 0,1092 1038,0 L 1038,0 0,0 0,1092 Z"
         id="path4694"
         inkscape:connector-curvature="0" /></clipPath><clipPath
       clipPathUnits="userSpaceOnUse"
       id="clipPath4704"><path
         d="m 799.847,599.163 155.52,0 0,-166.953 -155.52,0 0,166.953 z"
         id="path4706"
         inkscape:connector-curvature="0" /></clipPath><clipPath
       clipPathUnits="userSpaceOnUse"
       id="clipPath4732"><path
         d="m 0,1092 1038,0 L 1038,0 0,0 0,1092 Z"
         id="path4734"
         inkscape:connector-curvature="0" /></clipPath><clipPath
       clipPathUnits="userSpaceOnUse"
       id="clipPath4744"><path
         d="m 570.114,604.951 158.627,0 0,-172.541 -158.627,0 0,172.541 z"
         id="path4746"
         inkscape:connector-curvature="0" /></clipPath><clipPath
       clipPathUnits="userSpaceOnUse"
       id="clipPath4812"><path
         d="m 0,1092 1038,0 L 1038,0 0,0 0,1092 Z"
         id="path4814"
         inkscape:connector-curvature="0" /></clipPath><clipPath
       clipPathUnits="userSpaceOnUse"
       id="clipPath4824"><path
         d="m 341.581,589.833 155.211,0 0,-155.893 -155.211,0 0,155.893 z"
         id="path4826"
         inkscape:connector-curvature="0" /></clipPath><clipPath
       clipPathUnits="userSpaceOnUse"
       id="clipPath4860"><path
         d="m 0,1092 1038,0 L 1038,0 0,0 0,1092 Z"
         id="path4862"
         inkscape:connector-curvature="0" /></clipPath><clipPath
       clipPathUnits="userSpaceOnUse"
       id="clipPath4872"><path
         d="m 121.544,579.465 144.885,0 0,-146.375 -144.885,0 0,146.375 z"
         id="path4874"
         inkscape:connector-curvature="0" /></clipPath><clipPath
       clipPathUnits="userSpaceOnUse"
       id="clipPath4912"><path
         d="m 0,1092 1038,0 L 1038,0 0,0 0,1092 Z"
         id="path4914"
         inkscape:connector-curvature="0" /></clipPath><clipPath
       clipPathUnits="userSpaceOnUse"
       id="clipPath4924"><path
         d="m 804.489,883.706 150.878,0 0,-144.676 -150.878,0 0,144.676 z"
         id="path4926"
         inkscape:connector-curvature="0" /></clipPath><clipPath
       clipPathUnits="userSpaceOnUse"
       id="clipPath4952"><path
         d="m 0,1092 1038,0 L 1038,0 0,0 0,1092 Z"
         id="path4954"
         inkscape:connector-curvature="0" /></clipPath><clipPath
       clipPathUnits="userSpaceOnUse"
       id="clipPath4964"><path
         d="m 554.567,872.827 174.169,0 0,-138.287 -174.169,0 0,138.287 z"
         id="path4966"
         inkscape:connector-curvature="0" /></clipPath><clipPath
       clipPathUnits="userSpaceOnUse"
       id="clipPath5000"><path
         d="m 0,1092 1038,0 L 1038,0 0,0 0,1092 Z"
         id="path5002"
         inkscape:connector-curvature="0" /></clipPath><clipPath
       clipPathUnits="userSpaceOnUse"
       id="clipPath5012"><path
         d="m 336.156,902.815 159.371,0 0,-168.275 -159.371,0 0,168.275 z"
         id="path5014"
         inkscape:connector-curvature="0" /></clipPath><clipPath
       clipPathUnits="userSpaceOnUse"
       id="clipPath5076"><path
         d="m 0,1092 1038,0 L 1038,0 0,0 0,1092 Z"
         id="path5078"
         inkscape:connector-curvature="0" /></clipPath><clipPath
       clipPathUnits="userSpaceOnUse"
       id="clipPath5088"><path
         d="m 127.32,898.003 138.328,0 0,-161.613 -138.328,0 0,161.613 z"
         id="path5090"
         inkscape:connector-curvature="0" /></clipPath><clipPath
       clipPathUnits="userSpaceOnUse"
       id="clipPath5120"><path
         d="m 0,1092 1038,0 L 1038,0 0,0 0,1092 Z"
         id="path5122"
         inkscape:connector-curvature="0" /></clipPath></defs><sodipodi:namedview
     pagecolor="#ffffff"
     bordercolor="#666666"
     borderopacity="1"
     objecttolerance="10"
     gridtolerance="10"
     guidetolerance="10"
     inkscape:pageopacity="0"
     inkscape:pageshadow="2"
     inkscape:window-width="1440"
     inkscape:window-height="851"
     id="namedview4474"
     showgrid="false"
     inkscape:zoom="3.7085714"
     inkscape:cx="87.5"
     inkscape:cy="87.5"
     inkscape:window-x="0"
     inkscape:window-y="23"
     inkscape:window-maximized="1"
     inkscape:current-layer="g5004" /><g
     id="g4480"
     inkscape:groupmode="layer"
     inkscape:label="various_internal_organs_icons_design_vector"
     transform="matrix(1.25,0,0,-1.25,0,175)"><g
       id="g5004"
       transform="matrix(0.71629573,0,0,0.71629573,139.8844,69.957457)"><path
         d="m 0,0 c 0,-5.33 -0.43,-10.57 -1.26,-15.67 -7.49,-46.53 -47.82,-82.06 -96.47,-82.06 -5.48,0 -10.86,0.45 -16.1,1.33 -41.07,6.8 -73.49,39.22 -80.29,80.3 -0.88,5.24 -1.33,10.62 -1.33,16.1 0,48.64 35.54,88.98 82.07,96.46 5.09,0.83 10.32,1.26 15.65,1.26 C -43.75,97.72 0,53.97 0,0"
         style="fill:#40b4ba;fill-opacity:0.90588236;fill-rule:nonzero;stroke:none"
         id="path5006"
         inkscape:connector-curvature="0" /></g><g
       id="g5024"
       transform="matrix(0.71629573,0,0,0.71629573,71.521206,108.51745)"><path
         d="m 0,0 c -0.028,0.717 -0.047,1.436 -0.047,2.16 0,0.612 0.023,1.26 0.054,1.92 C -0.961,3.624 -2.021,3.371 -3.092,3.333 -4.22,3.299 -5.369,3.501 -6.413,3.985 -6.288,2.504 -6.192,1.029 -6.144,-0.431 -5.172,-0.519 -4.2,-0.543 -3.23,-0.483 -2.142,-0.417 -1.063,-0.258 0,0"
         style="fill:#ffffff;fill-opacity:1;fill-rule:nonzero;stroke:none"
         id="path5026"
         inkscape:connector-curvature="0" /></g><g
       id="g5028"
       transform="matrix(0.71629573,0,0,0.71629573,69.577251,98.102865)"><path
         d="M 0,0 C 1.234,0.063 2.462,0.259 3.619,0.649 4.233,0.872 4.827,1.154 5.372,1.54 4.728,3.067 4.216,4.643 3.821,6.257 3.533,6.08 3.238,5.918 2.936,5.785 1.877,5.306 0.726,5.08 -0.426,5.044 -1.577,5.018 -2.751,5.179 -3.843,5.638 -3.854,5.643 -3.864,5.65 -3.875,5.655 -4.156,3.949 -4.573,2.295 -5.174,0.715 -4.688,0.529 -4.195,0.379 -3.696,0.266 -2.48,0.018 -1.235,-0.062 0,0"
         style="fill:#ffffff;fill-opacity:1;fill-rule:nonzero;stroke:none"
         id="path5030"
         inkscape:connector-curvature="0" /></g><g
       id="g5032"
       transform="matrix(0.71629573,0,0,0.71629573,75.048819,92.75056)"><path
         d="m 0,0 c -0.609,-0.696 -1.316,-1.305 -2.106,-1.806 1.138,-0.969 2.365,-1.929 3.67,-3.033 1.057,1.498 2.23,2.915 3.41,4.277 2.25,2.653 4.638,5.166 5.81,8.09 0.565,1.477 0.85,2.938 0.795,4.608 -0.018,0.802 -0.052,1.635 -0.161,2.394 -0.097,0.744 -0.369,1.506 -0.609,1.763 -0.115,0.108 -0.072,0.139 -0.24,0.137 C 10.405,16.418 10.127,16.267 9.886,16.042 9.385,15.59 8.94,14.918 8.673,14.192 8.094,12.753 8.126,10.97 9.285,9.585 c -0.765,0.446 -1.399,1.2 -1.723,2.103 -0.317,0.902 -0.376,1.899 -0.207,2.854 0.186,0.954 0.527,1.896 1.207,2.733 0.349,0.408 0.781,0.819 1.459,1.055 0.67,0.273 1.667,0.062 2.196,-0.42 1.053,-0.958 1.257,-1.989 1.517,-2.923 0.222,-0.954 0.321,-1.866 0.351,-2.805 C 14.186,10.369 13.924,8.306 13.146,6.559 12.397,4.782 11.318,3.227 10.115,1.875 8.927,0.504 7.648,-0.716 6.364,-1.9 4.453,-3.665 2.565,-5.396 0.788,-7.279 c -0.861,-2.102 -1.66,-4.271 -2.124,-6.907 -0.583,-3.279 -0.83,-7.007 -0.937,-10.708 3.802,-1.479 7.733,-2.426 11.711,-2.854 4.801,-0.493 9.654,-0.322 14.4,0.495 4.751,0.782 9.402,2.194 13.801,4.189 3.508,1.628 6.875,3.645 9.815,6.259 -7.133,14.281 -15.605,23.067 -16.125,23.81 -6.767,9.676 -11.954,17.852 -17.736,17.852 -3.61,0 -9.25,-2.756 -9.25,-12.651 0,-1.618 0.079,-3.339 0.079,-5.046 C 4.422,5.31 4.33,3.46 3.968,1.752 3.852,1.235 3.735,0.73 3.604,0.239 2.872,0.975 2.204,1.738 1.58,2.519 1.194,1.589 0.646,0.748 0,0"
         style="fill:#ffffff;fill-opacity:1;fill-rule:nonzero;stroke:none"
         id="path5034"
         inkscape:connector-curvature="0" /></g><g
       id="g5036"
       transform="matrix(0.71629573,0,0,0.71629573,67.112907,103.18233)"><path
         d="M 0,0 C 0.982,-0.109 1.97,-0.137 2.96,-0.107 3.952,-0.079 4.943,0.003 5.939,0.144 6.292,0.2 6.642,0.266 6.993,0.34 6.62,2.123 6.379,3.95 6.245,5.806 5.233,5.351 4.141,5.096 3.043,5.029 2.04,4.972 1.022,5.059 0.044,5.319 0.055,3.524 -0.022,1.757 -0.226,0.037 -0.15,0.025 -0.074,0.011 0,0"
         style="fill:#ffffff;fill-opacity:1;fill-rule:nonzero;stroke:none"
         id="path5038"
         inkscape:connector-curvature="0" /></g><g
       id="g5040"
       transform="matrix(0.71629573,0,0,0.71629573,69.259,112.29412)"><path
         d="M 0,0 C 1.03,0.036 2.055,0.186 3.074,0.445 3.139,0.463 3.203,0.486 3.27,0.505 3.442,2.816 3.736,5.258 4.035,7.514 3.973,7.469 3.917,7.415 3.853,7.373 2.759,6.66 1.459,6.26 0.141,6.212 -1.175,6.164 -2.54,6.467 -3.684,7.19 -3.854,7.299 -4.018,7.421 -4.176,7.55 -3.924,5.181 -3.639,2.777 -3.406,0.379 -3.288,0.344 -3.17,0.302 -3.05,0.272 -2.053,0.043 -1.026,-0.037 0,0"
         style="fill:#ffffff;fill-opacity:1;fill-rule:nonzero;stroke:none"
         id="path5042"
         inkscape:connector-curvature="0" /></g><g
       id="g5044"
       transform="matrix(0.71629573,0,0,0.71629573,67.18425,118.65475)"><path
         d="m 0,0 c 0.963,-0.252 1.951,-0.328 2.947,-0.292 0.997,0.042 1.998,0.193 2.999,0.473 0.418,0.115 0.832,0.26 1.25,0.427 0,0.004 0.001,0.009 0.002,0.013 0.013,0.051 0.027,0.103 0.027,0.155 0,4.14 -9.288,2.95 -8.72,0 C -1.488,0.704 -1.479,0.632 -1.473,0.56 -0.985,0.308 -0.498,0.128 0,0"
         style="fill:#ffffff;fill-opacity:1;fill-rule:nonzero;stroke:none"
         id="path5046"
         inkscape:connector-curvature="0" /></g><g
       id="g5048"
       transform="matrix(0.71629573,0,0,0.71629573,82.897271,41.097902)"><path
         d="m 0,0 c 3.571,1.322 7.006,2.936 10.311,4.773 5.015,2.823 9.754,6.12 14.124,9.85 4.394,3.698 8.419,7.836 11.978,12.35 2.62,3.36 4.976,6.945 6.858,10.812 -1.724,6.247 -4.02,11.924 -6.492,16.95 C 34.314,51.654 31.056,49.173 27.596,47.246 23.171,44.778 18.297,43.173 13.31,42.308 8.313,41.499 3.168,41.436 -1.812,42.374 c -4.037,0.744 -7.964,2.16 -11.434,4.265 -0.076,-3.008 -0.069,-5.982 -0.069,-8.661 C -13.315,16.901 -7.601,6.001 0,0"
         style="fill:#ffffff;fill-opacity:1;fill-rule:nonzero;stroke:none"
         id="path5050"
         inkscape:connector-curvature="0" /></g><g
       id="g5052"
       transform="matrix(0.71629573,0,0,0.71629573,32.143779,77.942364)"><path
         d="m 0,0 c 2.232,-1.147 4.558,-2.096 6.912,-2.958 4.721,-1.681 9.582,-2.976 14.511,-3.834 2.46,-0.463 4.942,-0.787 7.43,-0.992 2.486,-0.239 4.982,-0.286 7.468,-0.212 2.482,0.111 4.968,0.368 7.369,0.997 1.412,0.355 2.789,0.863 4.095,1.53 -0.086,4.104 -0.321,8.308 -0.97,11.957 -0.512,2.926 -1.449,5.295 -2.422,7.622 -1.838,1.388 -3.671,2.771 -5.444,4.288 -2.622,2.249 -5.189,4.777 -6.886,8.102 -0.855,1.648 -1.356,3.559 -1.356,5.492 -0.004,0.9 0.089,1.868 0.305,2.79 0.222,0.93 0.536,1.89 1.183,2.766 0.327,0.431 0.745,0.841 1.284,1.137 0.535,0.294 1.215,0.444 1.861,0.323 1.334,-0.259 2.063,-1.391 2.299,-2.348 0.445,-2.029 -0.394,-3.81 -1.444,-5.159 0.525,1.625 0.784,3.417 0.154,4.714 -0.285,0.645 -0.839,1.022 -1.251,0.998 -0.405,0.006 -0.819,-0.317 -1.132,-0.876 -0.659,-1.121 -0.772,-2.77 -0.754,-4.324 0.019,-1.502 0.488,-2.968 1.144,-4.387 1.38,-2.835 3.645,-5.344 5.932,-7.829 1.48,-1.598 3.029,-3.184 4.489,-4.859 1.166,1.37 2.295,2.795 3.377,4.26 -0.126,0.047 -0.252,0.091 -0.375,0.142 -0.825,0.346 -1.581,0.846 -2.244,1.465 -0.658,0.621 -1.236,1.368 -1.586,2.244 -0.03,0.071 -0.048,0.146 -0.075,0.219 -0.614,-0.754 -1.29,-1.482 -2.051,-2.174 -0.104,0.427 -0.208,0.88 -0.311,1.331 -0.363,1.709 -0.452,3.558 -0.452,5.408 0,1.708 0.077,3.429 0.077,5.046 0,9.895 -5.64,12.652 -9.25,12.652 -5.782,0 -10.971,-8.177 -17.736,-17.853 C 13.604,26.899 4.298,17.26 -3.024,1.704 -2.043,1.087 -1.033,0.52 0,0"
         style="fill:#ffffff;fill-opacity:1;fill-rule:nonzero;stroke:none"
         id="path5054"
         inkscape:connector-curvature="0" /></g><g
       id="g5056"
       transform="matrix(0.71629573,0,0,0.71629573,72.706818,92.196577)"><path
         d="M 0,0 1.805,2.046 3.592,4.15 C 3.695,4.283 3.799,4.42 3.903,4.552 2.93,5.927 2.104,7.358 1.417,8.842 0.999,8.315 0.476,7.861 -0.086,7.533 -1.357,6.748 -2.824,6.383 -4.275,6.309 -5.728,6.242 -7.21,6.467 -8.549,7.083 -9.044,7.302 -9.53,7.586 -9.965,7.929 c -0.521,-1.186 -1.159,-2.325 -1.92,-3.412 0.162,-0.2 0.326,-0.394 0.494,-0.584 0.52,-0.56 1.058,-1.087 1.621,-1.612 0.678,-0.635 1.373,-1.26 2.088,-1.933 1.211,1.697 2.368,3.429 3.431,5.178 C -3.054,3.174 -1.627,1.507 0,0"
         style="fill:#ffffff;fill-opacity:1;fill-rule:nonzero;stroke:none"
         id="path5058"
         inkscape:connector-curvature="0" /></g><g
       id="g5060"
       transform="matrix(0.71629573,0,0,0.71629573,114.12891,67.244774)"><path
         d="m 0,0 c -1.343,-3.792 -3.288,-7.395 -5.558,-10.722 -3.339,-4.909 -7.43,-9.279 -11.936,-13.131 -4.543,-3.811 -9.515,-7.128 -14.875,-9.666 -3.29,-1.561 -6.733,-2.85 -10.262,-3.717 8.786,-6.341 19.791,-6.671 27.474,-8.598 3.971,-0.983 6.985,-4.903 11.254,-4.903 2.431,0 6.662,16.326 6.662,29.624 C 2.759,-13.568 1.689,-6.498 0,0"
         style="fill:#ffffff;fill-opacity:1;fill-rule:nonzero;stroke:none"
         id="path5062"
         inkscape:connector-curvature="0" /></g><g
       id="g5064"
       transform="matrix(0.71629573,0,0,0.71629573,63.722393,72.064728)"><path
         d="m 0,0 c -2.441,-0.957 -5.02,-1.51 -7.608,-1.804 -5.188,-0.594 -10.413,-0.206 -15.509,0.671 -5.088,0.94 -10.089,2.39 -14.813,4.516 -2.364,1.053 -4.649,2.291 -6.8,3.736 -0.936,0.644 -1.844,1.339 -2.709,2.08 -2.574,-5.576 -4.87,-11.889 -6.424,-18.813 1.467,-2.159 3.059,-4.228 4.724,-6.231 3.808,-4.501 7.98,-8.692 12.438,-12.556 4.429,-3.896 9.144,-7.472 14.083,-10.704 3.395,-2.171 6.893,-4.213 10.588,-5.874 8.8,5.552 15.782,16.421 15.782,39.725 0,2.258 0.007,4.726 -0.035,7.246 C 2.566,1.186 1.302,0.523 0,0"
         style="fill:#ffffff;fill-opacity:1;fill-rule:nonzero;stroke:none"
         id="path5066"
         inkscape:connector-curvature="0" /></g><g
       id="g5068"
       transform="matrix(0.71629573,0,0,0.71629573,46.774692,42.815866)"><path
         d="m 0,0 c -5.275,2.954 -10.179,6.53 -14.743,10.485 -4.528,3.994 -8.737,8.381 -12.318,13.263 -1.277,1.745 -2.488,3.562 -3.583,5.445 -1.017,-5.104 -1.621,-10.52 -1.621,-16.201 0,-13.299 4.231,-29.624 6.663,-29.624 4.269,0 7.284,3.919 11.255,4.902 6.969,1.748 16.673,2.177 24.974,6.974 C 6.933,-3.577 3.381,-1.877 0,0"
         style="fill:#ffffff;fill-opacity:1;fill-rule:nonzero;stroke:none"
         id="path5070"
         inkscape:connector-curvature="0" /></g></g></svg>