<?xml version="1.0" encoding="UTF-8" standalone="no"?>
<!-- Created with Inkscape (http://www.inkscape.org/) -->

<svg
   xmlns:dc="http://purl.org/dc/elements/1.1/"
   xmlns:cc="http://creativecommons.org/ns#"
   xmlns:rdf="http://www.w3.org/1999/02/22-rdf-syntax-ns#"
   xmlns:svg="http://www.w3.org/2000/svg"
   xmlns="http://www.w3.org/2000/svg"
   xmlns:sodipodi="http://sodipodi.sourceforge.net/DTD/sodipodi-0.dtd"
   xmlns:inkscape="http://www.inkscape.org/namespaces/inkscape"
   id="svg4472"
   version="1.1"
   inkscape:version="0.91 r13725"
   xml:space="preserve"
   width="175"
   height="175"
   viewBox="0 0 175 175"
   sodipodi:docname="skin.svg"><metadata
     id="metadata4478"><rdf:RDF><cc:Work
         rdf:about=""><dc:format>image/svg+xml</dc:format><dc:type
           rdf:resource="http://purl.org/dc/dcmitype/StillImage" /><dc:title /></cc:Work></rdf:RDF></metadata><defs
     id="defs4476"><clipPath
       clipPathUnits="userSpaceOnUse"
       id="clipPath4488"><path
         d="m 0,1092 1038,0 L 1038,0 0,0 0,1092 Z"
         id="path4490"
         inkscape:connector-curvature="0" /></clipPath><clipPath
       clipPathUnits="userSpaceOnUse"
       id="clipPath4500"><path
         d="m 781.451,266.386 173.912,0 0,-146.237 -173.912,0 0,146.237 z"
         id="path4502"
         inkscape:connector-curvature="0" /></clipPath><clipPath
       clipPathUnits="userSpaceOnUse"
       id="clipPath4536"><path
         d="m 0,1092 1038,0 L 1038,0 0,0 0,1092 Z"
         id="path4538"
         inkscape:connector-curvature="0" /></clipPath><clipPath
       clipPathUnits="userSpaceOnUse"
       id="clipPath4548"><path
         d="m 561.664,262.27 166.433,0 0,-143.96 -166.433,0 0,143.96 z"
         id="path4550"
         inkscape:connector-curvature="0" /></clipPath><clipPath
       clipPathUnits="userSpaceOnUse"
       id="clipPath4596"><path
         d="m 0,1092 1038,0 L 1038,0 0,0 0,1092 Z"
         id="path4598"
         inkscape:connector-curvature="0" /></clipPath><clipPath
       clipPathUnits="userSpaceOnUse"
       id="clipPath4608"><path
         d="m 341.673,282.12 154.189,0 0,-164.2 -154.189,0 0,164.2 z"
         id="path4610"
         inkscape:connector-curvature="0" /></clipPath><clipPath
       clipPathUnits="userSpaceOnUse"
       id="clipPath4628"><path
         d="m 0,1092 1038,0 L 1038,0 0,0 0,1092 Z"
         id="path4630"
         inkscape:connector-curvature="0" /></clipPath><clipPath
       clipPathUnits="userSpaceOnUse"
       id="clipPath4640"><path
         d="m 107.093,258.201 161.075,0 0,-139.921 -161.075,0 0,139.921 z"
         id="path4642"
         inkscape:connector-curvature="0" /></clipPath><clipPath
       clipPathUnits="userSpaceOnUse"
       id="clipPath4692"><path
         d="m 0,1092 1038,0 L 1038,0 0,0 0,1092 Z"
         id="path4694"
         inkscape:connector-curvature="0" /></clipPath><clipPath
       clipPathUnits="userSpaceOnUse"
       id="clipPath4704"><path
         d="m 799.847,599.163 155.52,0 0,-166.953 -155.52,0 0,166.953 z"
         id="path4706"
         inkscape:connector-curvature="0" /></clipPath><clipPath
       clipPathUnits="userSpaceOnUse"
       id="clipPath4732"><path
         d="m 0,1092 1038,0 L 1038,0 0,0 0,1092 Z"
         id="path4734"
         inkscape:connector-curvature="0" /></clipPath><clipPath
       clipPathUnits="userSpaceOnUse"
       id="clipPath4744"><path
         d="m 570.114,604.951 158.627,0 0,-172.541 -158.627,0 0,172.541 z"
         id="path4746"
         inkscape:connector-curvature="0" /></clipPath><clipPath
       clipPathUnits="userSpaceOnUse"
       id="clipPath4812"><path
         d="m 0,1092 1038,0 L 1038,0 0,0 0,1092 Z"
         id="path4814"
         inkscape:connector-curvature="0" /></clipPath><clipPath
       clipPathUnits="userSpaceOnUse"
       id="clipPath4824"><path
         d="m 341.581,589.833 155.211,0 0,-155.893 -155.211,0 0,155.893 z"
         id="path4826"
         inkscape:connector-curvature="0" /></clipPath><clipPath
       clipPathUnits="userSpaceOnUse"
       id="clipPath4860"><path
         d="m 0,1092 1038,0 L 1038,0 0,0 0,1092 Z"
         id="path4862"
         inkscape:connector-curvature="0" /></clipPath><clipPath
       clipPathUnits="userSpaceOnUse"
       id="clipPath4872"><path
         d="m 121.544,579.465 144.885,0 0,-146.375 -144.885,0 0,146.375 z"
         id="path4874"
         inkscape:connector-curvature="0" /></clipPath><clipPath
       clipPathUnits="userSpaceOnUse"
       id="clipPath4912"><path
         d="m 0,1092 1038,0 L 1038,0 0,0 0,1092 Z"
         id="path4914"
         inkscape:connector-curvature="0" /></clipPath><clipPath
       clipPathUnits="userSpaceOnUse"
       id="clipPath4924"><path
         d="m 804.489,883.706 150.878,0 0,-144.676 -150.878,0 0,144.676 z"
         id="path4926"
         inkscape:connector-curvature="0" /></clipPath><clipPath
       clipPathUnits="userSpaceOnUse"
       id="clipPath4952"><path
         d="m 0,1092 1038,0 L 1038,0 0,0 0,1092 Z"
         id="path4954"
         inkscape:connector-curvature="0" /></clipPath><clipPath
       clipPathUnits="userSpaceOnUse"
       id="clipPath4964"><path
         d="m 554.567,872.827 174.169,0 0,-138.287 -174.169,0 0,138.287 z"
         id="path4966"
         inkscape:connector-curvature="0" /></clipPath><clipPath
       clipPathUnits="userSpaceOnUse"
       id="clipPath5000"><path
         d="m 0,1092 1038,0 L 1038,0 0,0 0,1092 Z"
         id="path5002"
         inkscape:connector-curvature="0" /></clipPath><clipPath
       clipPathUnits="userSpaceOnUse"
       id="clipPath5012"><path
         d="m 336.156,902.815 159.371,0 0,-168.275 -159.371,0 0,168.275 z"
         id="path5014"
         inkscape:connector-curvature="0" /></clipPath><clipPath
       clipPathUnits="userSpaceOnUse"
       id="clipPath5076"><path
         d="m 0,1092 1038,0 L 1038,0 0,0 0,1092 Z"
         id="path5078"
         inkscape:connector-curvature="0" /></clipPath><clipPath
       clipPathUnits="userSpaceOnUse"
       id="clipPath5088"><path
         d="m 127.32,898.003 138.328,0 0,-161.613 -138.328,0 0,161.613 z"
         id="path5090"
         inkscape:connector-curvature="0" /></clipPath><clipPath
       clipPathUnits="userSpaceOnUse"
       id="clipPath5120"><path
         d="m 0,1092 1038,0 L 1038,0 0,0 0,1092 Z"
         id="path5122"
         inkscape:connector-curvature="0" /></clipPath></defs><sodipodi:namedview
     pagecolor="#ffffff"
     bordercolor="#666666"
     borderopacity="1"
     objecttolerance="10"
     gridtolerance="10"
     guidetolerance="10"
     inkscape:pageopacity="0"
     inkscape:pageshadow="2"
     inkscape:window-width="1440"
     inkscape:window-height="851"
     id="namedview4474"
     showgrid="false"
     inkscape:zoom="4.3299648"
     inkscape:cx="87.5"
     inkscape:cy="87.5"
     inkscape:window-x="0"
     inkscape:window-y="23"
     inkscape:window-maximized="1"
     inkscape:current-layer="g4480" /><g
     id="g4480"
     inkscape:groupmode="layer"
     inkscape:label="various_internal_organs_icons_design_vector"
     transform="matrix(1.25,0,0,-1.25,0,175)"><path
       inkscape:connector-curvature="0"
       id="path4542"
       style="fill:#40b4ba;fill-opacity:0.90588235;fill-rule:nonzero;stroke:none"
       d="m 139.99701,70.131786 c 0,-2.714761 -0.15759,-5.386544 -0.45843,-8.014633 C 138.02003,48.764684 132.7481,36.551842 124.79077,26.567396 113.25769,12.062407 96.074472,2.2484397 76.569023,0.43621147 76.461579,0.42904851 76.354134,0.4147226 76.24669,0.40755964 74.190921,0.22132275 72.107217,0.1289206 70.000591,0.1289206 c -38.665643,0 -70.00358143,31.3379384 -70.00358143,70.0028654 0,2.105909 0.09383474,4.191046 0.27935534,6.246815 C 3.1995678,109.46358 29.143083,135.93071 61.993121,139.66978 c 2.628806,0.30872 5.299872,0.45914 8.00747,0.45914 38.658479,0 69.996419,-31.33794 69.996419,-69.997134" /><rect
       transform="scale(1,-1)"
       y="-65.362099"
       x="14.668713"
       height="32.046761"
       width="109.79969"
       id="rect4203"
       style="opacity:1;fill:#ffffff;fill-opacity:1" /><ellipse
       style="opacity:1;fill:#40b4ba;fill-opacity:0.90588235"
       id="path4211"
       cx="64.542465"
       cy="-61.664612"
       transform="scale(1,-1)"
       rx="10.789044"
       ry="10.301889" /><g
       id="g4588"
       transform="matrix(1.3039838,-0.04816504,0.37568591,1.0755021,58.911684,67.360388)"><path
         d="m 10.413584,56.451689 c 1.133654,-0.08162 1.24154,4.095421 1.953247,3.338574 l -0.295049,-1.16527 C 4.2755087,42.613488 -4.7198556,15.770733 4.5342564,-0.51824936 18.817191,-9.8311985 0.09383641,-14.936128 2.191449,-1.7800179 -5.0869636,14.7215 -1.3219331,32.296279 6.9715707,49.30631 c 1.1593998,2.37693 1.2909562,2.197747 2.4108289,4.586293"
         style="fill:#ffffff;fill-opacity:1;fill-rule:nonzero;stroke:none"
         id="path4590"
         inkscape:connector-curvature="0"
         sodipodi:nodetypes="ccccccc" /></g><path
       style="fill:#40b4ba;fill-opacity:0.90588235;fill-rule:evenodd;stroke:#40b4ba;stroke-width:0.75857431px;stroke-linecap:butt;stroke-linejoin:miter;stroke-opacity:0.90588235"
       d="m 19.556951,51.238412 c -0.415925,-15.31743 -1.693473,-15.445844 -0.508612,-15.324274 52.814464,5.418877 97.993511,-8.385547 100.159811,8.080072 2.26013,17.178858 1.07223,-0.554576 1.80172,13.095289 0.31543,5.902237 -0.61272,4.503331 -12.31089,2.772887 -13.360877,-1.976398 -0.44403,-0.219512 -16.468238,-0.73944 -10.327119,-0.335077 -10.574232,3.70753 -13.791242,-1.831239 0,0 0.34386,-7.279595 -11.486415,-8.791343 -11.821561,-1.510634 -11.44085,1.336556 -15.616385,6.311204 -4.050704,4.825926 1.092661,9.267019 -5.134435,7.160456 -6.488117,-2.194864 6.911799,3.198735 -19.90851,-1.4613 -4.555108,-0.791451 -8.305934,0.559915 -8.305934,0.559915 2.872947,-8.572903 1.56913,-9.832227 1.56913,-9.832227 z"
       id="path4219"
       inkscape:connector-curvature="0"
       sodipodi:nodetypes="csssssssssssc" /></g></svg>