<?xml version="1.0" encoding="UTF-8" standalone="no"?>
<!-- Created with Inkscape (http://www.inkscape.org/) -->

<svg
   xmlns:dc="http://purl.org/dc/elements/1.1/"
   xmlns:cc="http://creativecommons.org/ns#"
   xmlns:rdf="http://www.w3.org/1999/02/22-rdf-syntax-ns#"
   xmlns:svg="http://www.w3.org/2000/svg"
   xmlns="http://www.w3.org/2000/svg"
   xmlns:sodipodi="http://sodipodi.sourceforge.net/DTD/sodipodi-0.dtd"
   xmlns:inkscape="http://www.inkscape.org/namespaces/inkscape"
   id="svg4472"
   version="1.1"
   inkscape:version="0.91 r13725"
   xml:space="preserve"
   width="175"
   height="175"
   viewBox="0 0 175 175"
   sodipodi:docname="various_internal_organs_icons_design_vector.svg"><metadata
     id="metadata4478"><rdf:RDF><cc:Work
         rdf:about=""><dc:format>image/svg+xml</dc:format><dc:type
           rdf:resource="http://purl.org/dc/dcmitype/StillImage" /><dc:title></dc:title></cc:Work></rdf:RDF></metadata><defs
     id="defs4476"><clipPath
       clipPathUnits="userSpaceOnUse"
       id="clipPath4488"><path
         d="m 0,1092 1038,0 L 1038,0 0,0 0,1092 Z"
         id="path4490"
         inkscape:connector-curvature="0" /></clipPath><clipPath
       clipPathUnits="userSpaceOnUse"
       id="clipPath4500"><path
         d="m 781.451,266.386 173.912,0 0,-146.237 -173.912,0 0,146.237 z"
         id="path4502"
         inkscape:connector-curvature="0" /></clipPath><clipPath
       clipPathUnits="userSpaceOnUse"
       id="clipPath4536"><path
         d="m 0,1092 1038,0 L 1038,0 0,0 0,1092 Z"
         id="path4538"
         inkscape:connector-curvature="0" /></clipPath><clipPath
       clipPathUnits="userSpaceOnUse"
       id="clipPath4548"><path
         d="m 561.664,262.27 166.433,0 0,-143.96 -166.433,0 0,143.96 z"
         id="path4550"
         inkscape:connector-curvature="0" /></clipPath><clipPath
       clipPathUnits="userSpaceOnUse"
       id="clipPath4596"><path
         d="m 0,1092 1038,0 L 1038,0 0,0 0,1092 Z"
         id="path4598"
         inkscape:connector-curvature="0" /></clipPath><clipPath
       clipPathUnits="userSpaceOnUse"
       id="clipPath4608"><path
         d="m 341.673,282.12 154.189,0 0,-164.2 -154.189,0 0,164.2 z"
         id="path4610"
         inkscape:connector-curvature="0" /></clipPath><clipPath
       clipPathUnits="userSpaceOnUse"
       id="clipPath4628"><path
         d="m 0,1092 1038,0 L 1038,0 0,0 0,1092 Z"
         id="path4630"
         inkscape:connector-curvature="0" /></clipPath><clipPath
       clipPathUnits="userSpaceOnUse"
       id="clipPath4640"><path
         d="m 107.093,258.201 161.075,0 0,-139.921 -161.075,0 0,139.921 z"
         id="path4642"
         inkscape:connector-curvature="0" /></clipPath><clipPath
       clipPathUnits="userSpaceOnUse"
       id="clipPath4692"><path
         d="m 0,1092 1038,0 L 1038,0 0,0 0,1092 Z"
         id="path4694"
         inkscape:connector-curvature="0" /></clipPath><clipPath
       clipPathUnits="userSpaceOnUse"
       id="clipPath4704"><path
         d="m 799.847,599.163 155.52,0 0,-166.953 -155.52,0 0,166.953 z"
         id="path4706"
         inkscape:connector-curvature="0" /></clipPath><clipPath
       clipPathUnits="userSpaceOnUse"
       id="clipPath4732"><path
         d="m 0,1092 1038,0 L 1038,0 0,0 0,1092 Z"
         id="path4734"
         inkscape:connector-curvature="0" /></clipPath><clipPath
       clipPathUnits="userSpaceOnUse"
       id="clipPath4744"><path
         d="m 570.114,604.951 158.627,0 0,-172.541 -158.627,0 0,172.541 z"
         id="path4746"
         inkscape:connector-curvature="0" /></clipPath><clipPath
       clipPathUnits="userSpaceOnUse"
       id="clipPath4812"><path
         d="m 0,1092 1038,0 L 1038,0 0,0 0,1092 Z"
         id="path4814"
         inkscape:connector-curvature="0" /></clipPath><clipPath
       clipPathUnits="userSpaceOnUse"
       id="clipPath4824"><path
         d="m 341.581,589.833 155.211,0 0,-155.893 -155.211,0 0,155.893 z"
         id="path4826"
         inkscape:connector-curvature="0" /></clipPath><clipPath
       clipPathUnits="userSpaceOnUse"
       id="clipPath4860"><path
         d="m 0,1092 1038,0 L 1038,0 0,0 0,1092 Z"
         id="path4862"
         inkscape:connector-curvature="0" /></clipPath><clipPath
       clipPathUnits="userSpaceOnUse"
       id="clipPath4872"><path
         d="m 121.544,579.465 144.885,0 0,-146.375 -144.885,0 0,146.375 z"
         id="path4874"
         inkscape:connector-curvature="0" /></clipPath><clipPath
       clipPathUnits="userSpaceOnUse"
       id="clipPath4912"><path
         d="m 0,1092 1038,0 L 1038,0 0,0 0,1092 Z"
         id="path4914"
         inkscape:connector-curvature="0" /></clipPath><clipPath
       clipPathUnits="userSpaceOnUse"
       id="clipPath4924"><path
         d="m 804.489,883.706 150.878,0 0,-144.676 -150.878,0 0,144.676 z"
         id="path4926"
         inkscape:connector-curvature="0" /></clipPath><clipPath
       clipPathUnits="userSpaceOnUse"
       id="clipPath4952"><path
         d="m 0,1092 1038,0 L 1038,0 0,0 0,1092 Z"
         id="path4954"
         inkscape:connector-curvature="0" /></clipPath><clipPath
       clipPathUnits="userSpaceOnUse"
       id="clipPath4964"><path
         d="m 554.567,872.827 174.169,0 0,-138.287 -174.169,0 0,138.287 z"
         id="path4966"
         inkscape:connector-curvature="0" /></clipPath><clipPath
       clipPathUnits="userSpaceOnUse"
       id="clipPath5000"><path
         d="m 0,1092 1038,0 L 1038,0 0,0 0,1092 Z"
         id="path5002"
         inkscape:connector-curvature="0" /></clipPath><clipPath
       clipPathUnits="userSpaceOnUse"
       id="clipPath5012"><path
         d="m 336.156,902.815 159.371,0 0,-168.275 -159.371,0 0,168.275 z"
         id="path5014"
         inkscape:connector-curvature="0" /></clipPath><clipPath
       clipPathUnits="userSpaceOnUse"
       id="clipPath5076"><path
         d="m 0,1092 1038,0 L 1038,0 0,0 0,1092 Z"
         id="path5078"
         inkscape:connector-curvature="0" /></clipPath><clipPath
       clipPathUnits="userSpaceOnUse"
       id="clipPath5088"><path
         d="m 127.32,898.003 138.328,0 0,-161.613 -138.328,0 0,161.613 z"
         id="path5090"
         inkscape:connector-curvature="0" /></clipPath><clipPath
       clipPathUnits="userSpaceOnUse"
       id="clipPath5120"><path
         d="m 0,1092 1038,0 L 1038,0 0,0 0,1092 Z"
         id="path5122"
         inkscape:connector-curvature="0" /></clipPath></defs><sodipodi:namedview
     pagecolor="#ffffff"
     bordercolor="#666666"
     borderopacity="1"
     objecttolerance="10"
     gridtolerance="10"
     guidetolerance="10"
     inkscape:pageopacity="0"
     inkscape:pageshadow="2"
     inkscape:window-width="1440"
     inkscape:window-height="851"
     id="namedview4474"
     showgrid="false"
     inkscape:zoom="3.7085714"
     inkscape:cx="87.159257"
     inkscape:cy="87.670176"
     inkscape:window-x="0"
     inkscape:window-y="23"
     inkscape:window-maximized="1"
     inkscape:current-layer="g4492" /><g
     id="g4480"
     inkscape:groupmode="layer"
     inkscape:label="various_internal_organs_icons_design_vector"
     transform="matrix(1.25,0,0,-1.25,0,175)"><g
       id="g4492"
       transform="matrix(0.71629206,0,0,0.71626275,139.54744,70.304014)"><path
         d="M -2.2355473e-7,-7.0741218e-8 C -2.2355473e-7,-46.82 -32.932,-85.96 -76.892,-95.5 c -6.71,-1.46 -13.679,-2.229 -20.83,-2.229 -53.979,0 -97.729,43.759 -97.729,97.728999929258776 C -195.451,7.15 -194.682,14.12 -193.222,20.83 c 9.54,43.97 48.67,76.9 95.5,76.9 6.601,0 13.061,-0.66 19.29,-1.91 C -39.941,88.12 -9.6210002,57.8 -1.9220002,19.31 -0.66000022,13.07 -2.2355473e-7,6.61 -2.2355473e-7,-7.0741218e-8"
         style="fill:#40b4ba;fill-opacity:0.90588235;fill-rule:nonzero;stroke:none"
         id="path4494"
         inkscape:connector-curvature="0" /></g><g
       id="g4512"
       transform="matrix(0.71629206,0,0,0.71626275,31.60344,90.062122)"><path
         d="m 0,0 c -0.005,-0.01 -0.005,-0.02 -0.01,-0.029 -0.348,-0.684 -1.16,-0.768 -3.653,-1.15 -0.364,-0.054 -0.428,-0.179 -0.167,-0.401 0.985,-0.832 0.551,-2.111 -0.809,-2.111 -0.854,0 -3.185,0.446 -4.247,0.446 -0.559,0 0.527,-1.046 0.939,-1.476 0.701,-0.729 1.162,-1.209 1.143,-1.856 -0.017,-0.596 -0.486,-1.103 -1.133,-1.103 -0.311,0 -0.684,0.129 -1.245,0.441 0.45,-0.945 1.075,-1.866 1.883,-2.728 2.492,-2.656 6.241,-4.373 9.552,-4.373 7.316,0 9.246,3.764 9.372,5.213 0.135,1.557 -0.578,3.274 -2.007,4.833 C 7.368,-1.841 3.839,-0.29 0,0"
         style="fill:#ffffff;fill-opacity:1;fill-rule:nonzero;stroke:none"
         id="path4514"
         inkscape:connector-curvature="0" /></g><g
       id="g4516"
       transform="matrix(0.71629206,0,0,0.71626275,51.915693,84.124949)"><path
         d="m 0,0 c -1.406,0.468 -3.077,0.801 -4.771,0.801 -5.383,0 -7.527,-1.982 -10.033,-2.142 -0.092,-0.51 -0.279,-1.055 -0.574,-1.598 0.629,-0.143 1.314,-0.186 1.79,-0.186 3.495,0 7.606,3.568 14.483,0.738 C 0.586,-1.604 0.286,-0.809 0,0"
         style="fill:#ffffff;fill-opacity:1;fill-rule:nonzero;stroke:none"
         id="path4518"
         inkscape:connector-curvature="0" /></g><g
       id="g4520"
       transform="matrix(0.71629206,0,0,0.71626275,90.845163,84.698532)"><path
         d="m 0,0 c -1.635,0 -3.248,-0.333 -4.606,-0.801 -0.278,-0.808 -0.567,-1.604 -0.865,-2.387 6.644,2.831 10.616,-0.738 13.992,-0.738 0.459,0 1.122,0.043 1.729,0.186 C 9.965,-3.196 9.783,-2.651 9.697,-2.142 7.273,-1.981 5.204,0 0,0"
         style="fill:#ffffff;fill-opacity:1;fill-rule:nonzero;stroke:none"
         id="path4522"
         inkscape:connector-curvature="0" /></g><g
       id="g4524"
       transform="matrix(0.71629206,0,0,0.71626275,113.1775,84.561439)"><path
         d="m 0,0 c -0.646,0 -1.115,0.507 -1.133,1.103 -0.019,0.647 0.444,1.126 1.143,1.856 0.412,0.428 1.498,1.476 0.939,1.476 -0.601,0 -1.533,-0.131 -2.357,-0.247 -0.774,-0.108 -1.44,-0.2 -1.889,-0.2 -1.014,0 -1.258,0.612 -1.316,0.874 -0.143,0.641 0.332,0.967 0.773,1.468 0,0 -0.035,0.136 -0.111,0.142 -2.768,0.223 -3.611,0.467 -3.975,1.178 -0.006,0.01 -0.006,0.02 -0.01,0.03 -3.839,-0.29 -7.369,-1.841 -9.619,-4.294 -1.427,-1.559 -2.14,-3.277 -2.006,-4.833 0.125,-1.449 2.055,-5.213 9.372,-5.213 3.31,0 7.06,1.717 9.552,4.373 0.809,0.861 1.434,1.783 1.883,2.727 C 0.686,0.129 0.312,0 0,0"
         style="fill:#ffffff;fill-opacity:1;fill-rule:nonzero;stroke:none"
         id="path4526"
         inkscape:connector-curvature="0" /></g><g
       id="g4528"
       transform="matrix(0.71629206,0,0,0.71626275,81.672542,58.87461)"><path
         d="m 0,0 c 0.76,4.747 -2.658,7.854 -2.72,15.512 0,0.049 0.005,0.102 0.006,0.15 -1.622,-1.901 -5.179,-4.805 -7.162,-6.304 6.491,8.386 17.803,28.815 18.74,37.285 0.51,0.09 0.999,0.132 1.472,0.132 4.547,0 7.493,-3.832 11.153,-3.832 4.959,0 6.686,3.731 10.219,6.047 0.469,0.31 3.887,0.881 7.467,2.342 3.021,1.231 6.099,3.282 8.638,3.282 0.176,0 0.348,-0.01 0.52,-0.029 3.01,-0.365 4.75,-1.896 4.75,-4.58 0,-3.303 -2.578,-5.99 -6.053,-5.99 -0.453,0 -0.92,0.045 -1.4,0.14 -1.551,0.309 -3.238,0.425 -4.711,0.425 -2.137,0 -3.816,-0.242 -3.959,-0.479 -0.354,-0.586 3.49,-0.77 4.873,-0.923 0.445,-0.051 0.496,-0.019 0.277,-0.431 -0.4,-0.75 -1.843,-1.43 -1.761,-1.805 0.013,-0.063 0.136,-0.088 0.338,-0.088 0.837,0 3.019,0.446 4.246,0.446 0.318,0 0.574,-0.031 0.72,-0.108 2.244,-1.155 -2.955,-4.327 -1.67,-4.327 0.383,0 2.448,1.364 3.643,2.169 0.922,0.507 0.955,1.001 0.955,-0.094 0,-1.367 -0.902,-2.925 -0.826,-3.156 0.053,-0.159 0.156,-0.229 0.299,-0.229 0.974,0 3.746,3.216 4.14,3.216 0.813,0 -0.953,-4.391 -0.55,-4.391 2.201,0 8.951,8.806 8.951,16.594 0,4.932 -7.809,8.121 -12.727,8.121 -7.058,0 -8.873,-4.609 -15.338,-5.673 -4.83,-0.797 -6.052,-6.243 -11.384,-6.243 -5.725,0 -10.31,6.081 -13.608,9.695 -3.972,8.415 -15.525,12.008 -24.465,11.791 -8.075,0.195 -20.268,-2.9 -24.465,-11.791 -3.297,-3.614 -7.882,-9.695 -13.607,-9.695 -5.332,0 -6.555,5.446 -11.385,6.243 -6.465,1.064 -8.278,5.673 -15.338,5.673 -4.918,0 -12.726,-3.189 -12.726,-8.121 0,-6.827 5.375,-14.971 8.36,-16.399 0.718,-0.345 0.828,-0.298 0.587,0.596 -0.32,1.198 -1.188,3.362 -0.566,3.6 0.005,0 0.011,0 0.019,0 0.396,0 3.166,-3.216 4.141,-3.216 0.142,0 0.246,0.07 0.299,0.229 0.089,0.27 -1.198,2.362 -0.74,3.821 0.168,0.538 2.643,-2.58 4.511,-2.74 1.379,-0.11 -3.915,3.17 -1.671,4.327 0.687,0.355 4.158,-0.338 4.969,-0.338 0.2,0 0.323,0.025 0.337,0.088 0.052,0.229 -1.323,1.034 -1.743,1.774 -0.226,0.391 -0.181,0.46 0.189,0.572 1.242,0.371 5.296,0.227 4.943,0.813 -0.142,0.237 -1.823,0.479 -3.959,0.479 -2.518,0 -5.848,-0.565 -6.112,-0.565 -3.474,0 -6.053,2.685 -6.053,5.99 0,2.684 1.741,4.215 4.751,4.58 0.171,0.019 0.344,0.029 0.52,0.029 2.539,0 5.616,-2.051 8.639,-3.282 3.58,-1.461 6.997,-2.032 7.466,-2.342 3.533,-2.316 5.26,-6.047 10.219,-6.047 3.658,0 6.607,3.832 11.153,3.832 0.472,0 0.961,-0.042 1.471,-0.132 0.836,-7.548 13.229,-30.092 18.889,-37.869 -1.984,1.497 -5.689,4.987 -7.311,6.888 0.001,-0.048 0.006,-0.101 0.006,-0.15 C -31.195,7.854 -34.613,4.747 -33.854,0 c 1.121,-7.008 5.068,-12.647 13.534,-21.974 -6.684,2.842 -8.94,5.934 -10.157,9.113 0.689,-2.797 0.998,-6.206 0.448,-13.081 -0.336,-4.211 1.856,-11.261 2.4,-16.703 0.169,-1.672 -0.626,-3.284 -0.086,-4.433 0.096,-0.204 0.211,-0.292 0.352,-0.292 1.075,0 3.419,4.804 10.436,3.537 6.936,1.251 9.434,-3.537 10.437,-3.537 0.14,0 0.256,0.088 0.35,0.292 0.541,1.149 -0.254,2.761 -0.086,4.433 0.545,5.442 2.738,12.492 2.401,16.703 -0.55,6.875 -0.24,10.284 0.448,13.081 -1.569,-3.931 -4.745,-7.023 -9.538,-8.944 C -4.719,-12.888 -1.128,-7.048 0,0"
         style="fill:#ffffff;fill-opacity:1;fill-rule:nonzero;stroke:none"
         id="path4530"
         inkscape:connector-curvature="0" /></g></g></svg>