<?xml version="1.0"?>
<svg width="215" height="45" xmlns="http://www.w3.org/2000/svg" xmlns:svg="http://www.w3.org/2000/svg" xmlns:xlink="http://www.w3.org/1999/xlink">
 <!-- Created with SVG-edit - http://svg-edit.googlecode.com/ -->
 <defs>
  <symbol id="svg_20" height="210" width="210" xmlns:svg="http://www.w3.org/2000/svg" xmlns="http://www.w3.org/2000/svg">
   <g>
    <title>Layer 1</title>
    <path d="m11.842,145.348999l0,30l38.329001,0l0,-65.604996l26.299,0c1.878998,0 3.722,-0.051003 5.529999,-0.152l28.328003,35.482994l-33.192001,34.925003l-19.347,0l0,30l32.222,0l39.212006,-41.259995l32.939987,41.259995l35.99501,0l0,-30l-21.557999,0l-26.514999,-33.210999l28.654999,-30.152l19.416992,0l0,-30l-32.291992,0l-34.675003,36.485001l-17.733002,-22.211998c15.949997,-9.269005 25.018005,-25.423004 25.018005,-46.515003c0.000992,-33.552 -23.758003,-54.395 -62.005005,-54.395l-37.628002,0l-18.671,0l-8.329,0l0,30l8.329,0l0,115.348999l-8.329,0zm38.329001,-115.348999l26.299,0c32.005997,0 32.005997,18.361 32.005997,24.396c0,5.555 -0.001999,21.165997 -22.265999,24.651997c-3.483002,0.342003 -6.495003,0.593002 -9.739998,0.593002l-26.299,0l0,-49.640999z" id="svg_18" fill="#ff007f"/>
    <g id="svg_17"/>
    <g id="svg_16"/>
    <g id="svg_15"/>
    <g id="svg_14"/>
    <g id="svg_13"/>
    <g id="svg_12"/>
    <g id="svg_11"/>
    <g id="svg_10"/>
    <g id="svg_9"/>
    <g id="svg_8"/>
    <g id="svg_7"/>
    <g id="svg_6"/>
    <g id="svg_5"/>
    <g id="svg_4"/>
    <g id="svg_3"/>
   </g>
  </symbol>
 </defs>
 <g>
  <title>Layer 1</title>
  <text fill="#ff007f" stroke="#000000" stroke-width="0" x="121.791019" y="39.328857" id="svg_2" font-size="24" font-family="Sans-serif" text-anchor="middle" xml:space="preserve">TryHomeo</text>
  <path fill="#ff007f" stroke-width="0" stroke-dasharray="null" stroke-linejoin="null" stroke-linecap="null" d="m175.017349,40.00441l22.158859,-34.86152l22.157806,34.86152l-44.316666,0z" id="svg_19" transform="rotate(90 197.17568969726562,22.57365036010744) " stroke="#000000"/>
  <path fill="#ff007f" stroke-width="0" stroke-dasharray="null" stroke-linejoin="null" stroke-linecap="null" d="m-4.54041,39.973598l22.15886,-34.861508l22.157799,34.861508l-44.316659,0z" transform="rotate(-90 17.617919921875004,22.542844772338867) " stroke="#000000" id="svg_21"/>
  <use x="899.742499" y="5.988372" transform="matrix(0.14643872301633207,0,0,0.13067860727351543,-94.58956979102578,-0.1808895209751832) " xlink:href="#svg_20" id="svg_22"/>
 </g>
</svg>