<?xml version="1.0"?>
<svg width="215" height="45" xmlns="http://www.w3.org/2000/svg" xmlns:svg="http://www.w3.org/2000/svg" xmlns:xlink="http://www.w3.org/1999/xlink">
 <!-- Created with SVG-edit - http://svg-edit.googlecode.com/ -->
 <defs>
  <symbol id="svg_53" height="210" width="210" xmlns:svg="http://www.w3.org/2000/svg" xmlns="http://www.w3.org/2000/svg">
   <g>
    <title>Layer 1</title>
    <path d="m11.842,145.348999l0,30l38.329001,0l0,-65.604996l26.299,0c1.878998,0 3.722,-0.051003 5.529999,-0.152l28.328003,35.482994l-33.192001,34.925003l-19.347,0l0,30l32.222,0l39.212006,-41.259995l32.939987,41.259995l35.99501,0l0,-30l-21.557999,0l-26.514999,-33.210999l28.654999,-30.152l19.416992,0l0,-30l-32.291992,0l-34.675003,36.485001l-17.733002,-22.211998c15.949997,-9.269005 25.018005,-25.423004 25.018005,-46.515003c0.000992,-33.551998 -23.758003,-54.395 -62.005005,-54.395l-37.628002,0l-18.671,0l-8.329,0l0,30l8.329,0l0,115.348999l-8.329,0zm38.329001,-115.348999l26.299,0c32.005997,0 32.005997,18.361 32.005997,24.396c0,5.555 -0.001999,21.165997 -22.265999,24.651997c-3.483002,0.342003 -6.495003,0.593002 -9.739998,0.593002l-26.299,0l0,-49.640999z" id="svg_52" fill="#ff007f"/>
    <g id="svg_51"/>
    <g id="svg_50"/>
    <g id="svg_49"/>
    <g id="svg_48"/>
    <g id="svg_47"/>
    <g id="svg_46"/>
    <g id="svg_45"/>
    <g id="svg_44"/>
    <g id="svg_43"/>
    <g id="svg_42"/>
    <g id="svg_41"/>
    <g id="svg_40"/>
    <g id="svg_39"/>
    <g id="svg_38"/>
    <g id="svg_37"/>
   </g>
  </symbol>
 </defs>
 <g>
  <title>Layer 1</title>
  <text xml:space="preserve" text-anchor="middle" font-family="Sans-serif" font-size="24" id="svg_2" y="39.328857" x="119.916019" stroke-width="0" stroke="#000000" fill="#ff007f">TryHomeo</text>
  <text fill="#7f0000" stroke-width="0" stroke-dasharray="null" stroke-linejoin="null" stroke-linecap="null" x="98.351563" y="29.53125" id="svg_1" font-size="24" font-family="Sans-serif" text-anchor="middle" xml:space="preserve" stroke="#ff005f"/>
  <path stroke="#000000" transform="rotate(90 197.17568969726562,22.57365036010744) " id="svg_19" d="m175.017349,40.004406l22.158859,-34.861511l22.157806,34.861511l-44.316666,0z" stroke-linecap="null" stroke-linejoin="null" stroke-dasharray="null" stroke-width="0" fill="#ff007f"/>
  <path id="svg_21" stroke="#000000" transform="rotate(-90 17.617919921875004,22.5428466796875) " d="m-4.540413,39.973602l22.158859,-34.861511l22.157799,34.861511l-44.316658,0z" stroke-linecap="null" stroke-linejoin="null" stroke-dasharray="null" stroke-width="0" fill="#ff007f"/>
  <image xlink:href="file:///Users/Gowsalya/Downloads/symbol74.svg" id="svg_24" height="48" width="48" y="-10.116211" x="104.115475"/>
  <path id="svg_26" stroke="#000000" transform="rotate(90 197.17568969726562,22.57365036010744) " d="m175.017349,40.004406l22.158859,-34.861511l22.157806,34.861511l-44.316666,0z" stroke-linecap="null" stroke-linejoin="null" stroke-dasharray="null" stroke-width="0" fill="#ff007f"/>
  <g id="svg_31"/>
  <use x="-34.48914" y="-363.754627" transform="matrix(0.14650058304829372,0,0,0.128981040309077,40.254195318461534,47.70060771763625) " xlink:href="#svg_53" id="svg_54"/>
  <g id="svg_55"/>
 </g>
</svg>